<?xml version="1.0" encoding="UTF-8"?>
<svg width="2236px" height="489px" viewBox="0 0 2236 489" version="1.1" xmlns="http://www.w3.org/2000/svg" xmlns:xlink="http://www.w3.org/1999/xlink">
    <title>Artboard Copy 90</title>
    <defs>
        <linearGradient x1="50%" y1="0%" x2="50%" y2="100%" id="linearGradient-1">
            <stop stop-color="#FF943B" offset="0%"></stop>
            <stop stop-color="#FFD91C" offset="100%"></stop>
        </linearGradient>
        <linearGradient x1="50%" y1="0%" x2="50%" y2="100%" id="linearGradient-2">
            <stop stop-color="#FF9C37" offset="0%"></stop>
            <stop stop-color="#FFD81C" offset="100%"></stop>
        </linearGradient>
    </defs>
    <g id="Artboard-Copy-90" stroke="none" stroke-width="1" fill="none" fill-rule="evenodd">
        <path d="M613.616314,326 C625.507553,326 636.492447,324.767785 646.570997,322.303356 C656.649547,319.838926 665.459215,316.649664 673,312.73557 L673,312.73557 L673,231.191946 L609.483384,231.191946 L609.483384,261.2 L638.848943,261.2 L638.848943,289.251007 C635.513595,290.700671 631.888218,291.751678 627.97281,292.404027 C624.057402,293.056376 619.924471,293.38255 615.574018,293.38255 C608.033233,293.38255 601.326284,292.186577 595.453172,289.794631 C589.58006,287.402685 584.649547,284.068456 580.661631,279.791946 C576.673716,275.515436 573.664653,270.405369 571.634441,264.461745 C569.60423,258.518121 568.589124,251.994631 568.589124,244.891275 C568.589124,237.932886 569.712991,231.518121 571.960725,225.64698 C574.208459,219.775839 577.362538,214.702013 581.422961,210.425503 C585.483384,206.148993 590.268882,202.814765 595.779456,200.422819 C601.29003,198.030872 607.308157,196.834899 613.833837,196.834899 C621.374622,196.834899 628.117825,198.175839 634.063444,200.857718 C640.009063,203.539597 644.794562,206.98255 648.41994,211.186577 L648.41994,211.186577 L671.912387,184.440268 C665.386707,178.206711 656.903323,173.241611 646.462236,169.544966 C636.021148,165.848322 624.70997,164 612.528701,164 C600.782477,164 589.833837,165.884564 579.682779,169.653691 C569.531722,173.422819 560.685801,178.822819 553.145015,185.853691 C545.60423,192.884564 539.694864,201.401342 535.416918,211.404027 C531.138973,221.406711 529,232.569128 529,244.891275 C529,257.068456 531.102719,268.122148 535.308157,278.052349 C539.513595,287.98255 545.350453,296.499329 552.818731,303.602685 C560.287009,310.70604 569.205438,316.214765 579.574018,320.128859 C589.942598,324.042953 601.29003,326 613.616314,326 Z" id="Path" fill="#FFFFFF" fill-rule="nonzero"></path>
        <path d="M761.756477,168 L762.923227,168.006327 C769.914687,168.082246 776.743387,168.841436 783.409326,170.283898 C790.445596,171.806497 796.756477,174.380414 802.341969,178.00565 C807.927461,181.630885 812.388601,186.416196 815.725389,192.361582 C819.062176,198.306968 820.73057,205.702448 820.73057,214.548023 C820.73057,224.988701 817.901554,233.76177 812.243523,240.867232 C806.585492,247.972693 798.751295,253.048023 788.740933,256.09322 L788.740933,256.09322 L829,322 L785.476684,322 L752.181347,260.878531 L739.559585,260.878531 L739.559585,322 L703,322 L703,168 L761.756477,168 Z M758.97561,198 L739,198 L739,234 L756.780488,234 C759.853659,234 763,233.745455 766.219512,233.236364 C769.439024,232.727273 772.365854,231.818182 775,230.509091 C777.634146,229.2 779.792683,227.309091 781.47561,224.836364 C783.158537,222.363636 784,219.163636 784,215.236364 C784,211.6 783.231707,208.654545 781.695122,206.4 C780.158537,204.145455 778.182927,202.4 775.768293,201.163636 C773.353659,199.927273 770.646341,199.090909 767.646341,198.654545 C764.646341,198.218182 761.756098,198 758.97561,198 L758.97561,198 Z" id="Combined-Shape" fill="#FFFFFF" fill-rule="nonzero"></path>
        <path d="M911.673806,326 C921.6771,326 930.7743,324.47868 938.965404,321.436039 C947.156507,318.393398 954.151565,314.155433 959.950577,308.722146 C965.749588,303.288858 970.207578,296.768913 973.324547,289.162311 C976.441516,281.555708 978,273.116002 978,263.843191 L978,263.843191 L978,168 L940.813839,168 L940.813839,260.80055 C940.813839,265.002293 940.306425,268.986703 939.291598,272.753783 C938.276771,276.520862 936.609555,279.8895 934.289951,282.859697 C931.970346,285.829895 928.962109,288.184319 925.265239,289.922971 C921.568369,291.661623 917.110379,292.530949 911.891269,292.530949 C906.672158,292.530949 902.214168,291.661623 898.517298,289.922971 C894.820428,288.184319 891.848435,285.829895 889.601318,282.859697 C887.354201,279.8895 885.686985,276.520862 884.599671,272.753783 C883.512356,268.986703 882.968699,265.002293 882.968699,260.80055 L882.968699,260.80055 L882.968699,168 L846,168 L846,263.843191 C846,273.116002 847.522241,281.555708 850.566722,289.162311 C853.611203,296.768913 857.960461,303.288858 863.614498,308.722146 C869.268534,314.155433 876.15486,318.393398 884.273476,321.436039 C892.392092,324.47868 901.525535,326 911.673806,326 Z" id="Path" fill="#FFFFFF" fill-rule="nonzero"></path>
        <path d="M1063.64804,168 L1064.74381,168.004729 C1072.7568,168.074081 1080.27144,168.906309 1087.28771,170.501412 C1094.62291,172.169021 1101.01397,174.851695 1106.46089,178.549435 C1111.90782,182.247175 1116.19274,187.104991 1119.31564,193.122881 C1122.43855,199.140772 1124,206.572505 1124,215.418079 C1124,224.408663 1122.32961,231.985405 1118.98883,238.148305 C1115.64804,244.311205 1111.14525,249.277778 1105.48045,253.048023 C1099.81564,256.818267 1093.27933,259.573446 1085.87151,261.313559 C1078.46369,263.053672 1070.76536,263.923729 1062.77654,263.923729 L1062.77654,263.923729 L1044.25698,263.923729 L1044.25698,322 L1007,322 L1007,168 L1063.64804,168 Z M1061.15385,198 L1045,198 L1045,234 L1060.50769,234 C1063.95385,234 1067.25641,233.712575 1070.41538,233.137725 C1073.57436,232.562874 1076.41026,231.556886 1078.92308,230.11976 C1081.4359,228.682635 1083.41026,226.778443 1084.84615,224.407186 C1086.28205,222.035928 1087,219.053892 1087,215.461078 C1087,211.868263 1086.28205,208.922156 1084.84615,206.622754 C1083.41026,204.323353 1081.47179,202.526946 1079.03077,201.233533 C1076.58974,199.94012 1073.82564,199.077844 1070.73846,198.646707 C1067.65128,198.215569 1064.45641,198 1061.15385,198 L1061.15385,198 Z" id="Combined-Shape" fill="#FFFFFF" fill-rule="nonzero"></path>
        <path d="M1222.89105,164 C1234.94812,164 1246.13359,165.882038 1256.44747,169.646113 C1266.76135,173.410188 1275.65888,178.766756 1283.14008,185.715818 C1290.62127,192.664879 1296.46822,201.097855 1300.68093,211.014745 C1304.89364,220.931635 1307,232.042895 1307,244.348525 C1307,256.509383 1304.89364,267.620643 1300.68093,277.682306 C1296.46822,287.743968 1290.62127,296.357909 1283.14008,303.524129 C1275.65888,310.690349 1266.76135,316.227882 1256.44747,320.136729 C1246.13359,324.045576 1234.94812,326 1222.89105,326 C1210.83398,326 1199.68482,324.045576 1189.44358,320.136729 C1179.20233,316.227882 1170.34112,310.690349 1162.85992,303.524129 C1155.37873,296.357909 1149.53178,287.743968 1145.31907,277.682306 C1141.10636,267.620643 1139,256.509383 1139,244.348525 C1139,232.042895 1141.10636,220.931635 1145.31907,211.014745 C1149.53178,201.097855 1155.37873,192.664879 1162.85992,185.715818 C1170.34112,178.766756 1179.20233,173.410188 1189.44358,169.646113 C1199.68482,165.882038 1210.83398,164 1222.89105,164 Z M1222.89136,197 C1216.37284,197 1210.43374,198.198394 1205.07407,200.595183 C1199.7144,202.991972 1195.07901,206.260321 1191.1679,210.400229 C1187.25679,214.540138 1184.25103,219.515291 1182.15062,225.325688 C1180.05021,231.136086 1179,237.382263 1179,244.06422 C1179,251.036697 1180.08642,257.46445 1182.25926,263.347477 C1184.4321,269.230505 1187.43786,274.278287 1191.27654,278.490826 C1195.11523,282.703364 1199.7144,286.008028 1205.07407,288.404817 C1210.43374,290.801606 1216.37284,292 1222.89136,292 C1229.40988,292 1235.34897,290.801606 1240.70864,288.404817 C1246.06831,286.008028 1250.7037,282.703364 1254.61481,278.490826 C1258.52593,274.278287 1261.5679,269.230505 1263.74074,263.347477 C1265.91358,257.46445 1267,251.036697 1267,244.06422 C1267,237.382263 1265.91358,231.136086 1263.74074,225.325688 C1261.5679,219.515291 1258.56214,214.540138 1254.72346,210.400229 C1250.88477,206.260321 1246.24938,202.991972 1240.81728,200.595183 C1235.38519,198.198394 1229.40988,197 1222.89136,197 Z" id="Combined-Shape" fill="#FFFFFF" fill-rule="nonzero"></path>
        <path d="M1376.31054,326 C1383.80776,326 1391.08872,324.983871 1398.15342,322.951613 C1405.21811,320.919355 1411.48983,317.798387 1416.96858,313.58871 C1422.44732,309.379032 1426.80869,304.044355 1430.05268,297.584677 C1433.29667,291.125 1434.91867,283.467742 1434.91867,274.612903 C1434.91867,266.919355 1433.40481,260.495968 1430.37708,255.342742 C1427.34935,250.189516 1423.52865,245.870968 1418.91497,242.387097 C1414.30129,238.903226 1409.18299,236.108871 1403.56007,234.004032 C1397.93715,231.899194 1392.5305,229.975806 1387.34011,228.233871 C1383.73567,227.072581 1380.49168,225.947581 1377.60813,224.858871 C1374.72458,223.770161 1372.23752,222.572581 1370.14695,221.266129 C1368.05638,219.959677 1366.47043,218.435484 1365.38909,216.693548 C1364.30776,214.951613 1363.7671,212.774194 1363.7671,210.16129 C1363.7671,207.112903 1364.45194,204.608871 1365.82163,202.649194 C1367.19131,200.689516 1368.8854,199.092742 1370.90388,197.858871 C1372.92237,196.625 1375.19316,195.790323 1377.71627,195.354839 C1380.23937,194.919355 1382.72643,194.701613 1385.17745,194.701613 C1389.9353,194.701613 1394.87338,195.899194 1399.99168,198.294355 C1405.10998,200.689516 1409.25508,203.919355 1412.42699,207.983871 L1412.42699,207.983871 L1436,182.943548 C1429.22366,176.701613 1421.32994,171.983871 1412.31885,168.790323 C1403.30776,165.596774 1394.47689,164 1385.82625,164 C1378.61738,164 1371.48059,164.907258 1364.4159,166.721774 C1357.3512,168.53629 1351.00739,171.403226 1345.38447,175.322581 C1339.76155,179.241935 1335.21996,184.25 1331.7597,190.346774 C1328.29945,196.443548 1326.56932,203.774194 1326.56932,212.33871 C1326.56932,219.306452 1327.68669,225.221774 1329.92144,230.084677 C1332.15619,234.947581 1335.11183,239.084677 1338.78835,242.495968 C1342.46488,245.907258 1346.64603,248.701613 1351.33179,250.879032 C1356.01756,253.056452 1360.81146,254.943548 1365.71349,256.540323 C1370.7597,258.137097 1375.26525,259.625 1379.23013,261.004032 C1383.19501,262.383065 1386.51109,263.907258 1389.17837,265.576613 C1391.84566,267.245968 1393.90018,269.096774 1395.34196,271.129032 C1396.78373,273.16129 1397.50462,275.629032 1397.50462,278.532258 C1397.50462,281.580645 1396.92791,284.193548 1395.77449,286.370968 C1394.62107,288.548387 1393.07116,290.290323 1391.12477,291.596774 C1389.17837,292.903226 1386.90758,293.846774 1384.31238,294.427419 C1381.71719,295.008065 1379.04991,295.298387 1376.31054,295.298387 C1370.25508,295.298387 1364.16359,293.737903 1358.03604,290.616935 C1351.9085,287.495968 1346.97043,283.612903 1343.22181,278.967742 L1343.22181,278.967742 L1319,303.790323 C1325.77634,310.903226 1334.28281,316.383065 1344.51941,320.229839 C1354.75601,324.076613 1365.35305,326 1376.31054,326 Z M1536.3917,326 C1548.377,326 1559.49589,324.045576 1569.74838,320.136729 C1580.00086,316.227882 1588.84544,310.690349 1596.2821,303.524129 C1603.71876,296.357909 1609.53091,287.743968 1613.71855,277.682306 C1617.90618,267.620643 1620,256.509383 1620,244.348525 C1620,232.042895 1617.90618,220.931635 1613.71855,211.014745 C1609.53091,201.097855 1603.71876,192.664879 1596.2821,185.715818 C1588.84544,178.766756 1580.00086,173.410188 1569.74838,169.646113 C1559.49589,165.882038 1548.377,164 1536.3917,164 C1524.4064,164 1513.32361,165.882038 1503.14332,169.646113 C1492.96304,173.410188 1484.15456,178.766756 1476.7179,185.715818 C1469.28124,192.664879 1463.46909,201.097855 1459.28145,211.014745 C1455.09382,220.931635 1453,232.042895 1453,244.348525 C1453,256.509383 1455.09382,267.620643 1459.28145,277.682306 C1463.46909,287.743968 1469.28124,296.357909 1476.7179,303.524129 C1484.15456,310.690349 1492.96304,316.227882 1503.14332,320.136729 C1513.32361,324.045576 1524.4064,326 1536.3917,326 Z M1535.89136,292 C1529.37284,292 1523.43374,290.801606 1518.07407,288.404817 C1512.7144,286.008028 1508.11523,282.703364 1504.27654,278.490826 C1500.43786,274.278287 1497.4321,269.230505 1495.25926,263.347477 C1493.08642,257.46445 1492,251.036697 1492,244.06422 C1492,237.382263 1493.05021,231.136086 1495.15062,225.325688 C1497.25103,219.515291 1500.25679,214.540138 1504.1679,210.400229 C1508.07901,206.260321 1512.7144,202.991972 1518.07407,200.595183 C1523.43374,198.198394 1529.37284,197 1535.89136,197 C1542.40988,197 1548.38519,198.198394 1553.81728,200.595183 C1559.24938,202.991972 1563.88477,206.260321 1567.72346,210.400229 C1571.56214,214.540138 1574.5679,219.515291 1576.74074,225.325688 C1578.91358,231.136086 1580,237.382263 1580,244.06422 C1580,251.036697 1578.91358,257.46445 1576.74074,263.347477 C1574.5679,269.230505 1571.52593,274.278287 1567.61481,278.490826 C1563.7037,282.703364 1559.06831,286.008028 1553.70864,288.404817 C1548.34897,290.801606 1542.40988,292 1535.89136,292 Z M1741,322 L1741,289.590395 L1681.40807,289.590395 L1681.40807,168 L1644,168 L1644,322 L1741,322 Z M1793.02596,322 L1792.15575,213.025424 L1792.80841,213.025424 L1831.75031,322 L1857.85661,322 L1897.88628,213.025424 L1898.53894,213.025424 L1897.66873,322 L1934,322 L1934,168 L1880.26452,168 L1846.76143,266.751412 L1845.89122,266.751412 L1810.86527,168 L1758,168 L1758,322 L1793.02596,322 Z M2073,322 L2073,290.242938 L2001.73887,290.242938 L2001.73887,258.268362 L2065.41903,258.268362 L2065.41903,228.468927 L2001.73887,228.468927 L2001.73887,199.539548 L2069.10121,199.539548 L2069.10121,168 L1966,168 L1966,322 L2073,322 Z M2124.26147,322 L2156.58971,267.621469 L2190.21975,322 L2236,322 L2180.45619,240.649718 L2229.05702,168 L2185.88039,168 L2157.67455,215.853107 L2129.03477,168 L2084.33936,168 L2133.80807,240.649718 L2080,322 L2124.26147,322 Z" id="SOLMEX" fill="url(#linearGradient-1)" fill-rule="nonzero"></path>
        <g id="Group" transform="translate(199.500000, 244.500000) rotate(-90.000000) translate(-199.500000, -244.500000) translate(-45.000000, 45.000000)">
            <path d="M308.625805,58.7272727 L313.860461,58.7500386 L317.45353,58.7794036 L317.40231,58.7354154 L480.905532,58.7354154 L472.798757,63.9623119 L465.4985,68.6342754 L459.561772,72.3999617 L453.801227,76.0125079 L450.555348,78.022469 L448.033117,79.5664301 L445.043407,81.3682164 L443.391464,82.3452806 L441.906157,83.2076893 L440.587486,83.9554425 L439.43545,84.58854 L489,84.58854 L444.588137,116.273835 C444.638627,116.48737 444.680134,116.707321 444.720627,116.928109 L480.905532,116.930214 L471.092895,125.183982 L460.188682,134.304098 L451.024317,141.893708 L445.928867,146.052879 L446.019514,168.517334 L446.026739,172.278951 L446.024181,176.632317 L446.013084,179.60422 L445.992884,182.493333 L445.962354,185.312703 L445.94283,186.700312 L445.8945,189.439532 C446.082433,192.461167 446.176307,195.529197 446.175561,198.642389 L446.193552,268.767553 L446.175561,270.921184 C445.038676,341.143937 388.403057,397.855687 318.280535,398.982899 L316.151525,399 L176.045986,399 L173.895028,398.982553 C147.356554,398.551737 122.750152,390.163074 102.352398,376.09597 L101.083039,375.209403 L271.097708,375.207534 L272.772973,375.193945 C327.949564,374.298229 372.402831,329.235122 372.402831,273.776493 L372.399522,267.019515 L372.395163,264.80966 L372.377534,260.357209 C371.974784,188.044552 365.160066,100.356278 249.851817,98.493769 L246.10948,98.4635833 L245.252971,98.4673467 C216.658477,98.7130549 190.926449,110.974011 172.845505,130.456778 L172.837627,130.39892 L172.783877,130.456778 C172.460988,128.187151 172.293945,125.86725 172.293945,123.508285 C172.293945,103.160068 184.723013,85.7184235 202.394471,78.3789616 L202.146782,78.316893 C226.097043,65.4217736 256.463145,58.8955851 293.245088,58.7383276 L303.300935,58.7272727 L308.625805,58.7272727 Z M292.939138,69.1068161 L291.794363,69.1365363 L290.036615,69.1947638 L288.308398,69.2666968 L287.455902,69.307484 L286.611436,69.3513151 L284.947451,69.4475988 L282.91647,69.5828039 L280.943072,69.7326501 L279.408075,69.8617299 L277.913808,69.997885 L276.461994,70.1400954 L274.36764,70.3625333 L273.029494,70.5154193 L271.113718,70.7490893 L268.739081,71.0633975 L267.100452,71.2967272 L265.590284,71.5241735 L263.374608,71.8808263 L261.246058,72.252174 L259.739903,72.5357271 L258.739081,72.7384153 L302.701465,83.7155515 L303.236743,83.8446046 C311.916821,85.8620808 317.526554,83.4749723 321.059145,80.2887587 L321.481394,79.8948614 C321.687395,79.696161 321.885761,79.4950169 322.076722,79.2922564 L322.265223,79.0889877 L322.627614,78.6799534 L322.801606,78.4745553 L322.970863,78.2688153 L323.300717,77.8500685 L323.458511,77.6409332 L323.760098,77.2241057 L324.043373,76.8104916 L324.372366,76.3003498 L324.674245,75.8006679 L324.896785,75.4104841 L325.19999,74.8447705 L325.467747,74.3071727 L325.701494,73.8029121 L325.90267,73.3372102 L326.122723,72.785279 L326.290839,72.3235557 L326.470319,71.7698292 L326.519892,71.5948783 L325.23782,71.3578566 C314.122126,69.3621363 302.908998,68.8763942 292.939138,69.1068161 Z" id="Combined-Shape" fill="url(#linearGradient-2)"></path>
            <path d="M207.542766,-6.50857146e-12 L212.777422,0.0227659199 L216.370491,0.0521309043 L216.319271,0.00814267627 L379.822493,0.00814267627 L371.715719,5.23503913 L364.415461,9.90700269 L358.478733,13.672689 L352.718188,17.2852352 L349.472309,19.2951962 L346.950078,20.8391573 L343.960368,22.6409437 L342.308425,23.6180079 L340.823118,24.4804166 L339.504447,25.2281697 L338.352411,25.8612673 L387.916961,25.8612673 L343.505098,57.5465625 C343.555588,57.7600972 343.597095,57.9800484 343.637588,58.2008364 L379.822493,58.2029415 L370.009856,66.4567096 L359.105644,75.5768257 L349.941279,83.166435 L344.845829,87.3256058 L344.936476,109.790062 L344.9437,113.551678 L344.941143,117.905045 L344.930045,120.876947 L344.909845,123.76606 L344.879315,126.58543 L344.859791,127.973039 L344.811462,130.71226 C344.999394,133.733894 345.093268,136.801925 345.092523,139.915116 L345.110514,210.04028 L345.092523,212.193912 C343.955637,282.416664 287.320018,339.128414 217.197496,340.255627 L215.068487,340.272727 L74.9629476,340.272727 L72.8119895,340.25528 C46.2735154,339.824464 21.6671132,331.435801 1.26935904,317.368698 L3.38218342e-12,316.48213 L170.014669,316.480261 L171.689934,316.466672 C226.866525,315.570956 271.319792,270.507849 271.319792,215.04922 L271.316484,208.292242 L271.312124,206.082387 L271.294495,201.629936 C270.891745,129.317279 264.077027,41.6290051 148.768778,39.7664963 L145.026441,39.7363105 L144.169932,39.7400739 C115.575438,39.9857822 89.8434104,52.2467381 71.7624658,71.7295055 L71.754588,71.6716472 L71.7008384,71.7295055 C71.3779492,69.4598787 71.210906,67.1399771 71.210906,64.7810119 C71.210906,44.432795 83.6399739,26.9911507 101.311433,19.6516889 L101.063743,19.5896203 C125.014004,6.69450089 155.380106,0.168312407 192.162049,0.0110548532 L202.217896,-6.50857146e-12 L207.542766,-6.50857146e-12 Z M191.856099,10.3795433 L190.711325,10.4092635 L188.953576,10.4674911 L187.225359,10.5394241 L186.372863,10.5802113 L185.528397,10.6240424 L183.864412,10.7203261 L181.833431,10.8555312 L179.860033,11.0053774 L178.325036,11.1344572 L176.830769,11.2706123 L175.378955,11.4128226 L173.284601,11.6352606 L171.946455,11.7881465 L170.030679,12.0218166 L167.656042,12.3361248 L166.017413,12.5694545 L164.507245,12.7969008 L162.291569,13.1535536 L160.163019,13.5249013 L158.656864,13.8084544 L157.656042,14.0111426 L201.618426,24.9882788 L202.153704,25.1173318 C210.833782,27.1348081 216.443515,24.7476996 219.976106,21.561486 L220.398355,21.1675887 C220.604356,20.9688883 220.802723,20.7677441 220.993683,20.5649836 L221.182184,20.361715 L221.544575,19.9526806 L221.718567,19.7472826 L221.887825,19.5415426 L222.217678,19.1227957 L222.375472,18.9136604 L222.677059,18.496833 L222.960334,18.0832189 L223.289327,17.5730771 L223.591206,17.0733952 L223.813746,16.6832113 L224.116951,16.1174977 L224.384708,15.5799 L224.618455,15.0756394 L224.819631,14.6099375 L225.039684,14.0580063 L225.2078,13.596283 L225.38728,13.0425565 L225.436853,12.8676055 L224.154781,12.6305839 C213.039087,10.6348636 201.825959,10.1491214 191.856099,10.3795433 Z" id="Combined-Shape" fill="url(#linearGradient-2)" transform="translate(193.958481, 170.136364) rotate(-180.000000) translate(-193.958481, -170.136364) "></path>
            <path d="M246.871235,148.545455 L248.401736,148.587699 L249.853954,148.670552 L250.589037,148.728498 L251.499159,148.815264 L252.454125,148.924303 L253.266291,149.031669 L254.129415,149.160631 L255.11246,149.326356 L256.587449,149.613179 L257.947964,149.919012 L259.342875,150.274565 L260.175546,150.507473 L261.375113,150.870727 L262.576844,151.268044 L263.856555,151.729132 L264.625628,152.025295 L265.23903,152.272283 L266.844442,152.963873 L267.942722,153.476218 L268.539929,153.768821 L269.384208,154.199072 L270.235024,154.653506 L270.770753,154.950618 L271.93425,155.625976 L272.980025,156.269816 L274.261129,157.10722 L275.449577,157.936112 L276.510027,158.719184 L277.963656,159.865561 L278.716768,160.495467 L279.381357,161.071016 L280.315239,161.916272 L280.81878,162.390942 L282.040271,163.595827 L282.173934,163.732703 C282.789778,164.366388 283.388996,165.0163 283.970883,165.681735 L284.44914,166.238181 C285.306169,167.246436 286.123977,168.289996 286.900127,169.365811 L287.848293,170.728922 L288.200213,171.257861 L288.777706,172.163682 L289.136534,172.745761 L289.72406,173.742623 L289.892235,174.037678 C293.995357,181.303516 296.337456,189.695506 296.337456,198.634342 C296.337456,209.026605 293.171801,218.679735 287.751895,226.68263 L286.822077,228.008984 L286.191183,228.859753 C285.692712,229.517312 285.1794,230.160966 284.650848,230.791419 L284.145451,231.384865 L283.515315,232.099518 C282.834099,232.85748 282.130669,233.59402 281.40575,234.308454 L280.065602,235.581627 L279.409266,236.172167 L278.877981,236.635257 L278.041962,237.33813 L277.173474,238.036406 L276.419198,238.617769 L275.370234,239.38942 L274.655263,239.891894 L273.65365,240.565262 L272.411766,241.352885 L271.669517,241.799719 L270.467891,242.486796 L269.104537,243.214217 L267.777232,243.871558 L266.479063,244.467985 L265.659821,244.821515 L264.308962,245.367037 L263.410588,245.704702 L262.369584,246.071524 L261.572625,246.334967 L260.032142,246.802431 L258.729775,247.155688 L257.459877,247.463998 L256.357688,247.703221 L255.211098,247.924569 L253.584055,248.19132 L252.259458,248.368108 L251.638122,248.438701 L249.753582,248.605205 L248.355823,248.682923 L247.184254,248.718331 L246.227915,248.727273 L245.571878,248.723068 L243.873504,248.672957 L242.173484,248.565675 L241.215068,248.47975 L239.686348,248.30429 L238.129403,248.076444 L236.485205,247.781059 L235.448104,247.565296 L234.348254,247.311158 L233.5431,247.108344 L231.720731,246.595869 L230.661809,246.263276 L229.912649,246.012153 C229.472775,245.860818 229.034585,245.703126 228.599276,245.539551 L227.19753,244.988475 L225.957292,244.459367 L224.613181,243.840302 L223.930311,243.507009 L222.744686,242.897239 L222.117335,242.558174 L220.561744,241.66637 L220.343967,241.535534 C219.925083,241.282433 219.509983,241.023231 219.099011,240.758183 L218.289953,240.225269 L217.499706,239.682717 L216.465211,238.938112 L215.564796,238.256769 L214.431636,237.352733 L213.580382,236.637436 L213.052111,236.17707 L212.399844,235.590429 L211.512912,234.758784 L210.584418,233.84351 L209.659847,232.883153 L209.232883,232.422034 L208.11087,231.152814 L207.541047,230.473965 L206.871068,229.643606 C206.5339,229.216553 206.203215,228.783442 205.879515,228.344865 C205.422415,227.7255 204.980231,227.096708 204.552371,226.457524 L204.173492,225.88303 L203.441527,224.721921 L202.959796,223.917203 L202.563595,223.231005 C198.460473,215.965168 196.118375,207.573177 196.118375,198.634342 C196.118375,188.242079 199.28403,178.588949 204.703936,170.586054 L205.635597,169.257158 L206.264648,168.408931 C206.786953,167.71993 207.325652,167.046073 207.881054,166.386743 L208.348857,165.839389 L208.976895,165.128729 C209.650674,164.380652 210.346266,163.65336 211.062886,162.947612 L212.390229,161.687057 L213.076402,161.070161 L213.620335,160.596957 L214.714254,159.685449 L215.282356,159.232278 L216.37001,158.401119 L217.548557,157.551783 L218.222303,157.088997 L220.244296,155.793533 L220.786313,155.468965 L221.987939,154.781888 L223.351293,154.054467 L224.505216,153.480221 L225.588509,152.97437 L226.139968,152.728881 L226.87796,152.412755 L228.146868,151.901647 L229.469491,151.41135 L230.086247,151.19716 L230.883205,150.933716 L232.439937,150.461611 L233.726055,150.112996 L234.765831,149.857942 L236.098142,149.565463 L237.244732,149.344115 L238.871775,149.077363 L240.196373,148.900576 L240.817708,148.829983 L242.702249,148.663479 L244.100007,148.585761 L245.271576,148.550352 L246.871235,148.545455 Z" id="Path" fill="#FFFFFF"></path>
        </g>
    </g>
</svg>