<?xml version="1.0" encoding="UTF-8"?>
<svg width="2342px" height="399px" viewBox="0 0 2342 399" version="1.1" xmlns="http://www.w3.org/2000/svg" xmlns:xlink="http://www.w3.org/1999/xlink">
    <title>Grupo Solmex - Logo Horizontal (Dark Text)</title>
    <defs>
        <linearGradient x1="50%" y1="0%" x2="50%" y2="100%" id="linearGradient-1">
            <stop stop-color="#FF943B" offset="0%"></stop>
            <stop stop-color="#FFD91C" offset="100%"></stop>
        </linearGradient>
        <linearGradient x1="50%" y1="0%" x2="50%" y2="100%" id="linearGradient-2">
            <stop stop-color="#FF9C37" offset="0%"></stop>
            <stop stop-color="#FFD81C" offset="100%"></stop>
        </linearGradient>
    </defs>
    <g id="Artboard" stroke="none" stroke-width="1" fill="none" fill-rule="evenodd">
        <g id="Group-3" transform="translate(583.000000, 49.000000)">
            <g id="Group-2" fill-rule="nonzero">
                <!-- GRUPO text - now #0A0A0A (Carbon Black) for white backgrounds -->
                <path d="M84.616314,162 C96.507553,162 107.492447,160.767785 117.570997,158.303356 C127.649547,155.838926 136.459215,152.649664 144,148.73557 L144,148.73557 L144,67.191946 L80.483384,67.191946 L80.483384,97.2 L109.848943,97.2 L109.848943,125.251007 C106.513595,126.700671 102.888218,127.751678 98.97281,128.404027 C95.057402,129.056376 90.924471,129.38255 86.574018,129.38255 C79.033233,129.38255 72.326284,128.186577 66.453172,125.794631 C60.58006,123.402685 55.649547,120.068456 51.661631,115.791946 C47.673716,111.515436 44.664653,106.405369 42.634441,100.461745 C40.60423,94.518121 39.589124,87.994631 39.589124,80.891275 C39.589124,73.932886 40.712991,67.518121 42.960725,61.64698 C45.208459,55.775839 48.362538,50.702013 52.422961,46.425503 C56.483384,42.148993 61.268882,38.814765 66.779456,36.422819 C72.29003,34.030872 78.308157,32.834899 84.833837,32.834899 C92.374622,32.834899 99.117825,34.175839 105.063444,36.857718 C111.009063,39.539597 115.794562,42.98255 119.41994,47.186577 L119.41994,47.186577 L142.912387,20.440268 C136.386707,14.206711 127.903323,9.241611 117.462236,5.544966 C107.021148,1.848322 95.70997,0 83.528701,0 C71.782477,0 60.833837,1.884564 50.682779,5.653691 C40.531722,9.422819 31.685801,14.822819 24.145015,21.853691 C16.60423,28.884564 10.694864,37.401342 6.416918,47.404027 C2.138973,57.406711 0,68.569128 0,80.891275 C0,93.068456 2.102719,104.122148 6.308157,114.052349 C10.513595,123.98255 16.350453,132.499329 23.818731,139.602685 C31.287009,146.70604 40.205438,152.214765 50.574018,156.128859 C60.942598,160.042953 72.29003,162 84.616314,162 Z" id="Path" fill="#0A0A0A"></path>
                <path d="M232.756477,4 L233.923227,4.006327 C240.914687,4.082246 247.743387,4.841436 254.409326,6.283898 C261.445596,7.806497 267.756477,10.380414 273.341969,14.00565 C278.927461,17.630885 283.388601,22.416196 286.725389,28.361582 C290.062176,34.306968 291.73057,41.702448 291.73057,50.548023 C291.73057,60.988701 288.901554,69.76177 283.243523,76.867232 C277.585492,83.972693 269.751295,89.048023 259.740933,92.09322 L259.740933,92.09322 L300,158 L256.476684,158 L223.181347,96.878531 L210.559585,96.878531 L210.559585,158 L174,158 L174,4 L232.756477,4 Z M229.97561,34 L210,34 L210,70 L227.780488,70 C230.853659,70 234,69.745455 237.219512,69.236364 C240.439024,68.727273 243.365854,67.818182 246,66.509091 C248.634146,65.2 250.792683,63.309091 252.47561,60.836364 C254.158537,58.363636 255,55.163636 255,51.236364 C255,47.6 254.231707,44.654545 252.695122,42.4 C251.158537,40.145455 249.182927,38.4 246.768293,37.163636 C244.353659,35.927273 241.646341,35.090909 238.646341,34.654545 C235.646341,34.218182 232.756098,34 229.97561,34 L229.97561,34 Z" id="Combined-Shape" fill="#0A0A0A"></path>
                <path d="M382.673806,162 C392.6771,162 401.7743,160.47868 409.965404,157.436039 C418.156507,154.393398 425.151565,150.155433 430.950577,144.722146 C436.749588,139.288858 441.207578,132.768913 444.324547,125.162311 C447.441516,117.555708 449,109.116002 449,99.843191 L449,99.843191 L449,4 L411.813839,4 L411.813839,96.80055 C411.813839,101.002293 411.306425,104.986703 410.291598,108.753783 C409.276771,112.520862 407.609555,115.8895 405.289951,118.859697 C402.970346,121.829895 399.962109,124.184319 396.265239,125.922971 C392.568369,127.661623 388.110379,128.530949 382.891269,128.530949 C377.672158,128.530949 373.214168,127.661623 369.517298,125.922971 C365.820428,124.184319 362.848435,121.829895 360.601318,118.859697 C358.354201,115.8895 356.686985,112.520862 355.599671,108.753783 C354.512356,104.986703 353.968699,101.002293 353.968699,96.80055 L353.968699,96.80055 L353.968699,4 L317,4 L317,99.843191 C317,109.116002 318.522241,117.555708 321.566722,125.162311 C324.611203,132.768913 328.960461,139.288858 334.614498,144.722146 C340.268534,150.155433 347.15486,154.393398 355.273476,157.436039 C363.392092,160.47868 372.525535,162 382.673806,162 Z" id="Path" fill="#0A0A0A"></path>
                <path d="M534.64804,4 L535.74381,4.004729 C543.7568,4.074081 551.27144,4.906309 558.28771,6.501412 C565.62291,8.169021 572.01397,10.851695 577.46089,14.549435 C582.90782,18.247175 587.19274,23.104991 590.31564,29.122881 C593.43855,35.140772 595,42.572505 595,51.418079 C595,60.408663 593.32961,67.985405 589.98883,74.148305 C586.64804,80.311205 582.14525,85.277778 576.48045,89.048023 C570.81564,92.818267 564.27933,95.573446 556.87151,97.313559 C549.46369,99.053672 541.76536,99.923729 533.77654,99.923729 L533.77654,99.923729 L515.25698,99.923729 L515.25698,158 L478,158 L478,4 L534.64804,4 Z M532.15385,34 L516,34 L516,70 L531.50769,70 C534.95385,70 538.25641,69.712575 541.41538,69.137725 C544.57436,68.562874 547.41026,67.556886 549.92308,66.11976 C552.4359,64.682635 554.41026,62.778443 555.84615,60.407186 C557.28205,58.035928 558,55.053892 558,51.461078 C558,47.868263 557.28205,44.922156 555.84615,42.622754 C554.41026,40.323353 552.47179,38.526946 550.03077,37.233533 C547.58974,35.94012 544.82564,35.077844 541.73846,34.646707 C538.65128,34.215569 535.45641,34 532.15385,34 L532.15385,34 Z" id="Combined-Shape" fill="#0A0A0A"></path>
                <path d="M693.89105,0 C705.94812,0 717.13359,1.882038 727.44747,5.646113 C737.76135,9.410188 746.65888,14.766756 754.14008,21.715818 C761.62127,28.664879 767.46822,37.097855 771.68093,47.014745 C775.89364,56.931635 778,68.042895 778,80.348525 C778,92.509383 775.89364,103.620643 771.68093,113.682306 C767.46822,123.743968 761.62127,132.357909 754.14008,139.524129 C746.65888,146.690349 737.76135,152.227882 727.44747,156.136729 C717.13359,160.045576 705.94812,162 693.89105,162 C681.83398,162 670.68482,160.045576 660.44358,156.136729 C650.20233,152.227882 641.34112,146.690349 633.85992,139.524129 C626.37873,132.357909 620.53178,123.743968 616.31907,113.682306 C612.10636,103.620643 610,92.509383 610,80.348525 C610,68.042895 612.10636,56.931635 616.31907,47.014745 C620.53178,37.097855 626.37873,28.664879 633.85992,21.715818 C641.34112,14.766756 650.20233,9.410188 660.44358,5.646113 C670.68482,1.882038 681.83398,0 693.89105,0 Z M693.89136,33 C687.37284,33 681.43374,34.198394 676.07407,36.595183 C670.7144,38.991972 666.07901,42.260321 662.1679,46.400229 C658.25679,50.540138 655.25103,55.515291 653.15062,61.325688 C651.05021,67.136086 650,73.382263 650,80.06422 C650,87.036697 651.08642,93.46445 653.25926,99.347477 C655.4321,105.230505 658.43786,110.278287 662.27654,114.490826 C666.11523,118.703364 670.7144,122.008028 676.07407,124.404817 C681.43374,126.801606 687.37284,128 693.89136,128 C700.40988,128 706.34897,126.801606 711.70864,124.404817 C717.06831,122.008028 721.7037,118.703364 725.61481,114.490826 C729.52593,110.278287 732.5679,105.230505 734.74074,99.347477 C736.91358,93.46445 738,87.036697 738,80.06422 C738,73.382263 736.91358,67.136086 734.74074,61.325688 C732.5679,55.515291 729.56214,50.540138 725.72346,46.400229 C721.88477,42.260321 717.24938,38.991972 711.81728,36.595183 C706.38519,34.198394 700.40988,33 693.89136,33 Z" id="Combined-Shape" fill="#0A0A0A"></path>
                <!-- SOLMEX text - gradient (brand colors) -->
                <path d="M847.31054,162 C854.80776,162 862.08872,160.983871 869.15342,158.951613 C876.21811,156.919355 882.48983,153.798387 887.96858,149.58871 C893.44732,145.379032 897.80869,140.044355 901.05268,133.584677 C904.29667,127.125 905.91867,119.467742 905.91867,110.612903 C905.91867,102.919355 904.40481,96.495968 901.37708,91.342742 C898.34935,86.189516 894.52865,81.870968 889.91497,78.387097 C885.30129,74.903226 880.18299,72.108871 874.56007,70.004032 C868.93715,67.899194 863.5305,65.975806 858.34011,64.233871 C854.73567,63.072581 851.49168,61.947581 848.60813,60.858871 C845.72458,59.770161 843.23752,58.572581 841.14695,57.266129 C839.05638,55.959677 837.47043,54.435484 836.38909,52.693548 C835.30776,50.951613 834.7671,48.774194 834.7671,46.16129 C834.7671,43.112903 835.45194,40.608871 836.82163,38.649194 C838.19131,36.689516 839.8854,35.092742 841.90388,33.858871 C843.92237,32.625 846.19316,31.790323 848.71627,31.354839 C851.23937,30.919355 853.72643,30.701613 856.17745,30.701613 C860.9353,30.701613 865.87338,31.899194 870.99168,34.294355 C876.10998,36.689516 880.25508,39.919355 883.42699,43.983871 L883.42699,43.983871 L907,18.943548 C900.22366,12.701613 892.32994,7.983871 883.31885,4.790323 C874.30776,1.596774 865.47689,0 856.82625,0 C849.61738,0 842.48059,0.907258 835.4159,2.721774 C828.3512,4.53629 822.00739,7.403226 816.38447,11.322581 C810.76155,15.241935 806.21996,20.25 802.7597,26.346774 C799.29945,32.443548 797.56932,39.774194 797.56932,48.33871 C797.56932,55.306452 798.68669,61.221774 800.92144,66.084677 C803.15619,70.947581 806.11183,75.084677 809.78835,78.495968 C813.46488,81.907258 817.64603,84.701613 822.33179,86.879032 C827.01756,89.056452 831.81146,90.943548 836.71349,92.540323 C841.7597,94.137097 846.26525,95.625 850.23013,97.004032 C854.19501,98.383065 857.51109,99.907258 860.17837,101.576613 C862.84566,103.245968 864.90018,105.096774 866.34196,107.129032 C867.78373,109.16129 868.50462,111.629032 868.50462,114.532258 C868.50462,117.580645 867.92791,120.193548 866.77449,122.370968 C865.62107,124.548387 864.07116,126.290323 862.12477,127.596774 C860.17837,128.903226 857.90758,129.846774 855.31238,130.427419 C852.71719,131.008065 850.04991,131.298387 847.31054,131.298387 C841.25508,131.298387 835.16359,129.737903 829.03604,126.616935 C822.9085,123.495968 817.97043,119.612903 814.22181,114.967742 L814.22181,114.967742 L790,139.790323 C796.77634,146.903226 805.28281,152.383065 815.51941,156.229839 C825.75601,160.076613 836.35305,162 847.31054,162 Z M1007.3917,162 C1019.377,162 1030.49589,160.045576 1040.74838,156.136729 C1051.00086,152.227882 1059.84544,146.690349 1067.2821,139.524129 C1074.71876,132.357909 1080.53091,123.743968 1084.71855,113.682306 C1088.90618,103.620643 1091,92.509383 1091,80.348525 C1091,68.042895 1088.90618,56.931635 1084.71855,47.014745 C1080.53091,37.097855 1074.71876,28.664879 1067.2821,21.715818 C1059.84544,14.766756 1051.00086,9.410188 1040.74838,5.646113 C1030.49589,1.882038 1019.377,0 1007.3917,0 C995.4064,0 984.32361,1.882038 974.14332,5.646113 C963.96304,9.410188 955.15456,14.766756 947.7179,21.715818 C940.28124,28.664879 934.46909,37.097855 930.28145,47.014745 C926.09382,56.931635 924,68.042895 924,80.348525 C924,92.509383 926.09382,103.620643 930.28145,113.682306 C934.46909,123.743968 940.28124,132.357909 947.7179,139.524129 C955.15456,146.690349 963.96304,152.227882 974.14332,156.136729 C984.32361,160.045576 995.4064,162 1007.3917,162 Z M1006.89136,128 C1000.37284,128 994.43374,126.801606 989.07407,124.404817 C983.7144,122.008028 979.11523,118.703364 975.27654,114.490826 C971.43786,110.278287 968.4321,105.230505 966.25926,99.347477 C964.08642,93.46445 963,87.036697 963,80.06422 C963,73.382263 964.05021,67.136086 966.15062,61.325688 C968.25103,55.515291 971.25679,50.540138 975.1679,46.400229 C979.07901,42.260321 983.7144,38.991972 989.07407,36.595183 C994.43374,34.198394 1000.37284,33 1006.89136,33 C1013.40988,33 1019.38519,34.198394 1024.81728,36.595183 C1030.24938,38.991972 1034.88477,42.260321 1038.72346,46.400229 C1042.56214,50.540138 1045.5679,55.515291 1047.74074,61.325688 C1049.91358,67.136086 1051,73.382263 1051,80.06422 C1051,87.036697 1049.91358,93.46445 1047.74074,99.347477 C1045.5679,105.230505 1042.52593,110.278287 1038.61481,114.490826 C1034.7037,118.703364 1030.06831,122.008028 1024.70864,124.404817 C1019.34897,126.801606 1013.40988,128 1006.89136,128 Z M1212,158 L1212,125.590395 L1152.40807,125.590395 L1152.40807,4 L1115,4 L1115,158 L1212,158 Z M1264.02596,158 L1263.15575,49.025424 L1263.80841,49.025424 L1302.75031,158 L1328.85661,158 L1368.88628,49.025424 L1369.53894,49.025424 L1368.66873,158 L1405,158 L1405,4 L1351.26452,4 L1317.76143,102.751412 L1316.89122,102.751412 L1281.86527,4 L1229,4 L1229,158 L1264.02596,158 Z M1544,158 L1544,126.242938 L1472.73887,126.242938 L1472.73887,94.268362 L1536.41903,94.268362 L1536.41903,64.468927 L1472.73887,64.468927 L1472.73887,35.539548 L1540.10121,35.539548 L1540.10121,4 L1437,4 L1437,158 L1544,158 Z M1595.26147,158 L1627.58971,103.621469 L1661.21975,158 L1707,158 L1651.45619,76.649718 L1700.05702,4 L1656.88039,4 L1628.67455,51.853107 L1600.03477,4 L1555.33936,4 L1604.80807,76.649718 L1551,158 L1595.26147,158 Z" id="SOLMEX" fill="url(#linearGradient-1)"></path>
            </g>
            <!-- Tagline - now #0A0A0A (Carbon Black) for white backgrounds -->
            <text id="Soluciones-Logistica" font-family="HelveticaNeue-Medium, Helvetica Neue" font-size="99" font-weight="400" letter-spacing="7.32" fill="#0A0A0A">
                <tspan x="0" y="280">Soluciones Logísticas de México</tspan>
            </text>
        </g>
        <g id="Group" transform="translate(244.500000, 199.500000) scale(-1, 1) translate(-244.500000, -199.500000) translate(0.000000, -0.000000)" fill-rule="nonzero">
            <path d="M308.625805,58.7272727 L313.860461,58.7500386 L317.45353,58.7794036 L317.40231,58.7354154 L480.905532,58.7354154 L472.798757,63.9623119 L465.4985,68.6342754 L459.561772,72.3999617 L453.801227,76.0125079 L450.555348,78.022469 L448.033117,79.5664301 L445.043407,81.3682164 L443.391464,82.3452806 L441.906157,83.2076893 L440.587486,83.9554425 L439.43545,84.58854 L489,84.58854 L444.588137,116.273835 C444.638627,116.48737 444.680134,116.707321 444.720627,116.928109 L480.905532,116.930214 L471.092895,125.183982 L460.188682,134.304098 L451.024317,141.893708 L445.928867,146.052879 L446.019514,168.517334 L446.026739,172.278951 L446.024181,176.632317 L446.013084,179.60422 L445.992884,182.493333 L445.962354,185.312703 L445.94283,186.700312 L445.8945,189.439532 C446.082433,192.461167 446.176307,195.529197 446.175561,198.642389 L446.193552,268.767553 L446.175561,270.921184 C445.038676,341.143937 388.403057,397.855687 318.280535,398.982899 L316.151525,399 L176.045986,399 L173.895028,398.982553 C147.356554,398.551737 122.750152,390.163074 102.352398,376.09597 L101.083039,375.209403 L271.097708,375.207534 L272.772973,375.193945 C327.949564,374.298229 372.402831,329.235122 372.402831,273.776493 L372.399522,267.019515 L372.395163,264.80966 L372.377534,260.357209 C371.974784,188.044552 365.160066,100.356278 249.851817,98.493769 L246.10948,98.4635833 L245.252971,98.4673467 C216.658477,98.7130549 190.926449,110.974011 172.845505,130.456778 L172.837627,130.39892 L172.783877,130.456778 C172.460988,128.187151 172.293945,125.86725 172.293945,123.508285 C172.293945,103.160068 184.723013,85.7184235 202.394471,78.3789616 L202.146782,78.316893 C226.097043,65.4217736 256.463145,58.8955851 293.245088,58.7383276 L303.300935,58.7272727 L308.625805,58.7272727 Z M292.939138,69.1068161 L291.794363,69.1365363 L290.036615,69.1947638 L288.308398,69.2666968 L287.455902,69.307484 L286.611436,69.3513151 L284.947451,69.4475988 L282.91647,69.5828039 L280.943072,69.7326501 L279.408075,69.8617299 L277.913808,69.997885 L276.461994,70.1400954 L274.36764,70.3625333 L273.029494,70.5154193 L271.113718,70.7490893 L268.739081,71.0633975 L267.100452,71.2967272 L265.590284,71.5241735 L263.374608,71.8808263 L261.246058,72.252174 L259.739903,72.5357271 L258.739081,72.7384153 L302.701465,83.7155515 L303.236743,83.8446046 C311.916821,85.8620808 317.526554,83.4749723 321.059145,80.2887587 L321.481394,79.8948614 C321.687395,79.696161 321.885761,79.4950169 322.076722,79.2922564 L322.265223,79.0889877 L322.627614,78.6799534 L322.801606,78.4745553 L322.970863,78.2688153 L323.300717,77.8500685 L323.458511,77.6409332 L323.760098,77.2241057 L324.043373,76.8104916 L324.372366,76.3003498 L324.674245,75.8006679 L324.896785,75.4104841 L325.19999,74.8447705 L325.467747,74.3071727 L325.701494,73.8029121 L325.90267,73.3372102 L326.122723,72.785279 L326.290839,72.3235557 L326.470319,71.7698292 L326.519892,71.5948783 L325.23782,71.3578566 C314.122126,69.3621363 302.908998,68.8763942 292.939138,69.1068161 Z" id="Combined-Shape" fill="url(#linearGradient-2)"></path>
            <path d="M207.542767,9.99999997e-07 L212.777423,0.0227669199 L216.370492,0.0521319043 L216.319272,0.00814367628 L379.822494,0.00814367628 L371.71572,5.23504013 L364.415462,9.90700369 L358.478734,13.67269 L352.718189,17.2852362 L349.47231,19.2951972 L346.950079,20.8391583 L343.960369,22.6409447 L342.308426,23.6180089 L340.823119,24.4804176 L339.504448,25.2281707 L338.352412,25.8612683 L387.916962,25.8612683 L343.505099,57.5465635 C343.555589,57.7600982 343.597096,57.9800494 343.637589,58.2008374 L379.822494,58.2029425 L370.009857,66.4567106 L359.105645,75.5768267 L349.94128,83.166436 L344.84583,87.3256068 L344.936477,109.790063 L344.943701,113.551679 L344.941144,117.905046 L344.930046,120.876948 L344.909846,123.766061 L344.879316,126.585431 L344.859792,127.97304 L344.811463,130.712261 C344.999395,133.733895 345.093269,136.801926 345.092524,139.915117 L345.110515,210.040281 L345.092524,212.193913 C343.955638,282.416665 287.320019,339.128415 217.197497,340.255628 L215.068488,340.272728 L74.9629486,340.272728 L72.8119905,340.255281 C46.2735164,339.824465 21.6671142,331.435802 1.26936004,317.368699 L9.99999997e-07,316.482131 L170.01467,316.480262 L171.689935,316.466673 C226.866526,315.570957 271.319793,270.50785 271.319793,215.049221 L271.316485,208.292243 L271.312125,206.082388 L271.294496,201.629937 C270.891746,129.31728 264.077028,41.6290061 148.768779,39.7664973 L145.026442,39.7363115 L144.169933,39.7400749 C115.575439,39.9857832 89.8434114,52.2467391 71.7624668,71.7295065 L71.754589,71.6716482 L71.7008394,71.7295065 C71.3779502,69.4598797 71.210907,67.1399781 71.210907,64.7810129 C71.210907,44.432796 83.6399749,26.9911517 101.311434,19.6516899 L101.063744,19.5896213 C125.014005,6.69450189 155.380107,0.168313407 192.16205,0.0110558532 L202.217897,9.99999997e-07 L207.542767,9.99999997e-07 Z M191.8561,10.3795443 L190.711326,10.4092645 L188.953577,10.4674921 L187.22536,10.5394251 L186.372864,10.5802123 L185.528398,10.6240434 L183.864413,10.7203271 L181.833432,10.8555322 L179.860034,11.0053784 L178.325037,11.1344582 L176.83077,11.2706133 L175.378956,11.4128236 L173.284602,11.6352616 L171.946456,11.7881475 L170.03068,12.0218176 L167.656043,12.3361258 L166.017414,12.5694555 L164.507246,12.7969018 L162.29157,13.1535546 L160.16302,13.5249023 L158.656865,13.8084554 L157.656043,14.0111436 L201.618427,24.9882798 L202.153705,25.1173328 C210.833783,27.1348091 216.443516,24.7477006 219.976107,21.561487 L220.398356,21.1675897 C220.604357,20.9688893 220.802724,20.7677451 220.993684,20.5649846 L221.182185,20.361716 L221.544576,19.9526816 L221.718568,19.7472836 L221.887826,19.5415436 L222.217679,19.1227967 L222.375473,18.9136614 L222.67706,18.496834 L222.960335,18.0832199 L223.289328,17.5730781 L223.591207,17.0733962 L223.813747,16.6832123 L224.116952,16.1174987 L224.384709,15.579901 L224.618456,15.0756404 L224.819632,14.6099385 L225.039685,14.0580073 L225.207801,13.596284 L225.387281,13.0425575 L225.436854,12.8676065 L224.154782,12.6305849 C213.039088,10.6348646 201.82596,10.1491224 191.8561,10.3795443 Z" id="Combined-Shape" fill="url(#linearGradient-2)" transform="translate(193.958481, 170.136365) rotate(-180.000000) translate(-193.958481, -170.136365) "></path>
            <path d="M246.871235,148.545455 L248.401736,148.587699 L249.853954,148.670552 L250.589037,148.728498 L251.499159,148.815264 L252.454125,148.924303 L253.266291,149.031669 L254.129415,149.160631 L255.11246,149.326356 L256.587449,149.613179 L257.947964,149.919012 L259.342875,150.274565 L260.175546,150.507473 L261.375113,150.870727 L262.576844,151.268044 L263.856555,151.729132 L264.625628,152.025295 L265.23903,152.272283 L266.844442,152.963873 L267.942722,153.476218 L268.539929,153.768821 L269.384208,154.199072 L270.235024,154.653506 L270.770753,154.950618 L271.93425,155.625976 L272.980025,156.269816 L274.261129,157.10722 L275.449577,157.936112 L276.510027,158.719184 L277.963656,159.865561 L278.716768,160.495467 L279.381357,161.071016 L280.315239,161.916272 L280.81878,162.390942 L282.040271,163.595827 L282.173934,163.732703 C282.789778,164.366388 283.388996,165.0163 283.970883,165.681735 L284.44914,166.238181 C285.306169,167.246436 286.123977,168.289996 286.900127,169.365811 L287.848293,170.728922 L288.200213,171.257861 L288.777706,172.163682 L289.136534,172.745761 L289.72406,173.742623 L289.892235,174.037678 C293.995357,181.303516 296.337456,189.695506 296.337456,198.634342 C296.337456,209.026605 293.171801,218.679735 287.751895,226.68263 L286.822077,228.008984 L286.191183,228.859753 C285.692712,229.517312 285.1794,230.160966 284.650848,230.791419 L284.145451,231.384865 L283.515315,232.099518 C282.834099,232.85748 282.130669,233.59402 281.40575,234.308454 L280.065602,235.581627 L279.409266,236.172167 L278.877981,236.635257 L278.041962,237.33813 L277.173474,238.036406 L276.419198,238.617769 L275.370234,239.38942 L274.655263,239.891894 L273.65365,240.565262 L272.411766,241.352885 L271.669517,241.799719 L270.467891,242.486796 L269.104537,243.214217 L267.777232,243.871558 L266.479063,244.467985 L265.659821,244.821515 L264.308962,245.367037 L263.410588,245.704702 L262.369584,246.071524 L261.572625,246.334967 L260.032142,246.802431 L258.729775,247.155688 L257.459877,247.463998 L256.357688,247.703221 L255.211098,247.924569 L253.584055,248.19132 L252.259458,248.368108 L251.638122,248.438701 L249.753582,248.605205 L248.355823,248.682923 L247.184254,248.718331 L246.227915,248.727273 L245.571878,248.723068 L243.873504,248.672957 L242.173484,248.565675 L241.215068,248.47975 L239.686348,248.30429 L238.129403,248.076444 L236.485205,247.781059 L235.448104,247.565296 L234.348254,247.311158 L233.5431,247.108344 L231.720731,246.595869 L230.661809,246.263276 L229.912649,246.012153 C229.472775,245.860818 229.034585,245.703126 228.599276,245.539551 L227.19753,244.988475 L225.957292,244.459367 L224.613181,243.840302 L223.930311,243.507009 L222.744686,242.897239 L222.117335,242.558174 L220.561744,241.66637 L220.343967,241.535534 C219.925083,241.282433 219.509983,241.023231 219.099011,240.758183 L218.289953,240.225269 L217.499706,239.682717 L216.465211,238.938112 L215.564796,238.256769 L214.431636,237.352733 L213.580382,236.637436 L213.052111,236.17707 L212.399844,235.590429 L211.512912,234.758784 L210.584418,233.84351 L209.659847,232.883153 L209.232883,232.422034 L208.11087,231.152814 L207.541047,230.473965 L206.871068,229.643606 C206.5339,229.216553 206.203215,228.783442 205.879515,228.344865 C205.422415,227.7255 204.980231,227.096708 204.552371,226.457524 L204.173492,225.88303 L203.441527,224.721921 L202.959796,223.917203 L202.563595,223.231005 C198.460473,215.965168 196.118375,207.573177 196.118375,198.634342 C196.118375,188.242079 199.28403,178.588949 204.703936,170.586054 L205.635597,169.257158 L206.264648,168.408931 C206.786953,167.71993 207.325652,167.046073 207.881054,166.386743 L208.348857,165.839389 L208.976895,165.128729 C209.650674,164.380652 210.346266,163.65336 211.062886,162.947612 L212.390229,161.687057 L213.076402,161.070161 L213.620335,160.596957 L214.714254,159.685449 L215.282356,159.232278 L216.37001,158.401119 L217.548557,157.551783 L218.222303,157.088997 L220.244296,155.793533 L220.786313,155.468965 L221.987939,154.781888 L223.351293,154.054467 L224.505216,153.480221 L225.588509,152.97437 L226.139968,152.728881 L226.87796,152.412755 L228.146868,151.901647 L229.469491,151.41135 L230.086247,151.19716 L230.883205,150.933716 L232.439937,150.461611 L233.726055,150.112996 L234.765831,149.857942 L236.098142,149.565463 L237.244732,149.344115 L238.871775,149.077363 L240.196373,148.900576 L240.817708,148.829983 L242.702249,148.663479 L244.100007,148.585761 L245.271576,148.550352 L246.871235,148.545455 Z" id="Path" fill="#0A0A0A"></path>
        </g>
    </g>
</svg>

