<?xml version="1.0" encoding="UTF-8"?>
<svg width="1063" height="614" viewBox="0 0 1063 614" xmlns="http://www.w3.org/2000/svg" xmlns:xlink="http://www.w3.org/1999/xlink">
    <!-- Business Card Front - 90mm x 55mm at 300dpi = 1063px x 650px (with 3mm bleed = 1063 x 614) -->
    <title>Grupo Solmex - Business Card Front</title>
    <defs>
        <linearGradient id="logoGradient" x1="50%" y1="0%" x2="50%" y2="100%">
            <stop offset="0%" stop-color="#FF9C37"/>
            <stop offset="100%" stop-color="#FFD81C"/>
        </linearGradient>
        <style>
            @import url('https://fonts.googleapis.com/css2?family=Space+Grotesk:wght@600&amp;family=Inter:wght@400&amp;display=swap');
            .name { font-family: 'Space Grotesk', sans-serif; font-size: 48px; font-weight: 600; fill: #0A0A0A; }
            .title { font-family: 'Inter', sans-serif; font-size: 36px; fill: #8B9197; }
            .contact { font-family: 'Inter', sans-serif; font-size: 32px; fill: #2C3E44; }
        </style>
    </defs>
    
    <!-- White Background -->
    <rect width="1063" height="614" fill="#FFFFFF"/>
    
    <!-- Corner Accent -->
    <polygon points="1063,614 893,614 1063,444" fill="#FF943B"/>
    
    <!-- Logo (scaled to ~140px width) -->
    <g transform="translate(70, 70) scale(0.29)">
        <g transform="translate(244.5, 199.5) scale(-1, 1) translate(-244.5, -199.5)">
            <path d="M308.625805,58.7272727 L313.860461,58.7500386 L317.45353,58.7794036 L317.40231,58.7354154 L480.905532,58.7354154 L472.798757,63.9623119 L465.4985,68.6342754 L459.561772,72.3999617 L453.801227,76.0125079 L450.555348,78.022469 L448.033117,79.5664301 L445.043407,81.3682164 L443.391464,82.3452806 L441.906157,83.2076893 L440.587486,83.9554425 L439.43545,84.58854 L489,84.58854 L444.588137,116.273835 C444.638627,116.48737 444.680134,116.707321 444.720627,116.928109 L480.905532,116.930214 L471.092895,125.183982 L460.188682,134.304098 L451.024317,141.893708 L445.928867,146.052879 L446.019514,168.517334 L446.026739,172.278951 L446.024181,176.632317 L446.013084,179.60422 L445.992884,182.493333 L445.962354,185.312703 L445.94283,186.700312 L445.8945,189.439532 C446.082433,192.461167 446.176307,195.529197 446.175561,198.642389 L446.193552,268.767553 L446.175561,270.921184 C445.038676,341.143937 388.403057,397.855687 318.280535,398.982899 L316.151525,399 L176.045986,399 L173.895028,398.982553 C147.356554,398.551737 122.750152,390.163074 102.352398,376.09597 L101.083039,375.209403 L271.097708,375.207534 L272.772973,375.193945 C327.949564,374.298229 372.402831,329.235122 372.402831,273.776493 L372.399522,267.019515 L372.395163,264.80966 L372.377534,260.357209 C371.974784,188.044552 365.160066,100.356278 249.851817,98.493769 L246.10948,98.4635833 L245.252971,98.4673467 C216.658477,98.7130549 190.926449,110.974011 172.845505,130.456778 L172.837627,130.39892 L172.783877,130.456778 C172.460988,128.187151 172.293945,125.86725 172.293945,123.508285 C172.293945,103.160068 184.723013,85.7184235 202.394471,78.3789616 L202.146782,78.316893 C226.097043,65.4217736 256.463145,58.8955851 293.245088,58.7383276 L303.300935,58.7272727 L308.625805,58.7272727 Z" fill="url(#logoGradient)"/>
            <path d="M207.542767,0 L212.777423,0.0227669199 L216.370492,0.0521319043 L216.319272,0.00814367628 L379.822494,0.00814367628 L371.71572,5.23504013 L364.415462,9.90700369 L358.478734,13.67269 L352.718189,17.2852362 L349.47231,19.2951972 L346.950079,20.8391583 L343.960369,22.6409447 L342.308426,23.6180089 L340.823119,24.4804176 L339.504448,25.2281707 L338.352412,25.8612683 L387.916962,25.8612683 L343.505099,57.5465635 C343.555589,57.7600982 343.597096,57.9800494 343.637589,58.2008374 L379.822494,58.2029425 L370.009857,66.4567106 L359.105645,75.5768267 L349.94128,83.166436 L344.84583,87.3256068 L344.936477,109.790063 L344.943701,113.551679 L344.941144,117.905046 L344.930046,120.876948 L344.909846,123.766061 L344.879316,126.585431 L344.859792,127.97304 L344.811463,130.712261 C344.999395,133.733895 345.093269,136.801926 345.092524,139.915117 L345.110515,210.040281 L345.092524,212.193913 C343.955638,282.416665 287.320019,339.128415 217.197497,340.255628 L215.068488,340.272728 L74.9629486,340.272728 L72.8119905,340.255281 C46.2735164,339.824465 21.6671142,331.435802 1.26936004,317.368699 L0,316.482131 L170.01467,316.480262 L171.689935,316.466673 C226.866526,315.570957 271.319793,270.50785 271.319793,215.049221 L271.316485,208.292243 L271.312125,206.082388 L271.294496,201.629937 C270.891746,129.31728 264.077028,41.6290061 148.768779,39.7664973 L145.026442,39.7363115 L144.169933,39.7400749 C115.575439,39.9857832 89.8434114,52.2467391 71.7624668,71.7295065 L71.754589,71.6716482 L71.7008394,71.7295065 C71.3779502,69.4598797 71.210907,67.1399781 71.210907,64.7810129 C71.210907,44.432796 83.6399749,26.9911517 101.311434,19.6516899 L101.063744,19.5896213 C125.014005,6.69450189 155.380107,0.168313407 192.16205,0.0110558532 L202.217897,0 L207.542767,0 Z" fill="url(#logoGradient)" transform="translate(193.958481, 170.136365) rotate(-180) translate(-193.958481, -170.136365)"/>
            <path d="M246.871235,148.545455 L248.401736,148.587699 L249.853954,148.670552 L296.337456,198.634342 C296.337456,209.026605 293.171801,218.679735 287.751895,226.68263 L196.118375,198.634342 C196.118375,188.242079 199.28403,178.588949 204.703936,170.586054 L246.871235,148.545455 Z" fill="#0A0A0A"/>
        </g>
    </g>
    
    <!-- Text Content -->
    <text x="70" y="400" class="name">[Nombre Completo]</text>
    <text x="70" y="455" class="title">[Puesto / Title]</text>
    <text x="70" y="520" class="contact">+52 81 1234 5678</text>
    <text x="70" y="560" class="contact">[email]@gruposolmex.com</text>
    
    <!-- Instructions (will be trimmed in print) -->
    <rect x="0" y="0" width="1063" height="35" fill="none" stroke="#FF0000" stroke-width="1" stroke-dasharray="10,5"/>
    <rect x="0" y="579" width="1063" height="35" fill="none" stroke="#FF0000" stroke-width="1" stroke-dasharray="10,5"/>
</svg>
