<?xml version="1.0" encoding="UTF-8"?>
<svg width="1200" height="1800" viewBox="0 0 1200 1800" xmlns="http://www.w3.org/2000/svg">
  <defs>
    <style>
      .title { font-family: 'Inter', sans-serif; font-size: 32px; font-weight: 700; fill: #0A0A0A; }
      .subtitle { font-family: 'Inter', sans-serif; font-size: 14px; fill: #8B9197; }
      .category-label { font-family: 'Inter', sans-serif; font-size: 14px; font-weight: 600; fill: #8B9197; text-transform: uppercase; }
      .icon-label { font-family: 'JetBrains Mono', monospace; font-size: 10px; fill: #8B9197; }
    </style>
  </defs>
  
  <!-- Background -->
  <rect width="1200" height="1800" fill="#F8F9FA"/>
  
  <!-- Header -->
  <text x="60" y="50" class="title">Grupo Solmex Icon System</text>
  <text x="60" y="75" class="subtitle">24×24px grid • 1.5px stroke • 2px corner radius • 40+ icons</text>
  
  <!-- Operations & Logistics -->
  <text x="60" y="130" class="category-label">Operations &amp; Logistics</text>
  <g transform="translate(60, 150)">
    <!-- Row 1 -->
    <g transform="translate(0, 0)">
      <rect width="80" height="80" rx="8" fill="white" stroke="#E4E7E9" stroke-width="1"/>
      <g transform="translate(40, 40)">
        <rect x="2" y="7" width="20" height="14" rx="2" stroke="#FF943B" stroke-width="1.5" fill="none" stroke-linecap="round" stroke-linejoin="round"/>
        <path d="M16 3l-4 4-4-4" stroke="#FF943B" stroke-width="1.5" stroke-linecap="round" stroke-linejoin="round"/>
      </g>
      <text x="40" y="95" text-anchor="middle" class="icon-label">shipment</text>
    </g>
    <g transform="translate(100, 0)">
      <rect width="80" height="80" rx="8" fill="white" stroke="#E4E7E9" stroke-width="1"/>
      <g transform="translate(40, 40)">
        <path d="M1 6v16l7-4 8 4 7-4V2l-7 4-8-4-7 4z" stroke="#FF943B" stroke-width="1.5" stroke-linecap="round" stroke-linejoin="round"/>
        <path d="M8 2v16M16 6v16" stroke="#FF943B" stroke-width="1.5" stroke-linecap="round" stroke-linejoin="round"/>
      </g>
      <text x="40" y="95" text-anchor="middle" class="icon-label">route</text>
    </g>
    <g transform="translate(200, 0)">
      <rect width="80" height="80" rx="8" fill="white" stroke="#E4E7E9" stroke-width="1"/>
      <g transform="translate(40, 40)">
        <circle cx="12" cy="12" r="10" stroke="#FF943B" stroke-width="1.5" stroke-linecap="round" stroke-linejoin="round"/>
        <path d="M12 6v6l4 2" stroke="#FF943B" stroke-width="1.5" stroke-linecap="round" stroke-linejoin="round"/>
      </g>
      <text x="40" y="95" text-anchor="middle" class="icon-label">schedule</text>
    </g>
    <g transform="translate(300, 0)">
      <rect width="80" height="80" rx="8" fill="white" stroke="#E4E7E9" stroke-width="1"/>
      <g transform="translate(40, 40)">
        <path d="M21 10c0 7-9 13-9 13s-9-6-9-13a9 9 0 1118 0z" stroke="#FF943B" stroke-width="1.5" stroke-linecap="round" stroke-linejoin="round"/>
        <circle cx="12" cy="10" r="3" stroke="#FF943B" stroke-width="1.5" stroke-linecap="round" stroke-linejoin="round"/>
      </g>
      <text x="40" y="95" text-anchor="middle" class="icon-label">terminal</text>
    </g>
    <!-- Row 2 -->
    <g transform="translate(0, 120)">
      <rect width="80" height="80" rx="8" fill="white" stroke="#E4E7E9" stroke-width="1"/>
      <g transform="translate(40, 40)">
        <rect x="1" y="3" width="15" height="13" rx="1" stroke="#FF943B" stroke-width="1.5" stroke-linecap="round" stroke-linejoin="round"/>
        <polygon points="16 8 20 8 23 11 23 16 16 16 16 8" stroke="#FF943B" stroke-width="1.5" stroke-linecap="round" stroke-linejoin="round"/>
        <circle cx="5.5" cy="18.5" r="2.5" stroke="#FF943B" stroke-width="1.5" stroke-linecap="round" stroke-linejoin="round"/>
        <circle cx="18.5" cy="18.5" r="2.5" stroke="#FF943B" stroke-width="1.5" stroke-linecap="round" stroke-linejoin="round"/>
      </g>
      <text x="40" y="95" text-anchor="middle" class="icon-label">truck</text>
    </g>
    <g transform="translate(100, 120)">
      <rect width="80" height="80" rx="8" fill="white" stroke="#E4E7E9" stroke-width="1"/>
      <g transform="translate(40, 40)">
        <rect x="2" y="4" width="20" height="16" rx="2" stroke="#FF943B" stroke-width="1.5" stroke-linecap="round" stroke-linejoin="round"/>
        <path d="M2 8h20M6 12h4M6 16h8" stroke="#FF943B" stroke-width="1.5" stroke-linecap="round" stroke-linejoin="round"/>
      </g>
      <text x="40" y="95" text-anchor="middle" class="icon-label">railcar</text>
    </g>
    <g transform="translate(200, 120)">
      <rect width="80" height="80" rx="8" fill="white" stroke="#E4E7E9" stroke-width="1"/>
      <g transform="translate(40, 40)">
        <path d="M12 2L2 7l10 5 10-5-10-5z" stroke="#FF943B" stroke-width="1.5" stroke-linecap="round" stroke-linejoin="round"/>
        <path d="M2 17l10 5 10-5M2 12l10 5 10-5" stroke="#FF943B" stroke-width="1.5" stroke-linecap="round" stroke-linejoin="round"/>
      </g>
      <text x="40" y="95" text-anchor="middle" class="icon-label">inventory</text>
    </g>
    <g transform="translate(300, 120)">
      <rect width="80" height="80" rx="8" fill="white" stroke="#E4E7E9" stroke-width="1"/>
      <g transform="translate(40, 40)">
        <rect x="2" y="3" width="20" height="14" rx="2" stroke="#FF943B" stroke-width="1.5" stroke-linecap="round" stroke-linejoin="round"/>
        <line x1="8" y1="21" x2="16" y2="21" stroke="#FF943B" stroke-width="1.5" stroke-linecap="round" stroke-linejoin="round"/>
        <line x1="12" y1="17" x2="12" y2="21" stroke="#FF943B" stroke-width="1.5" stroke-linecap="round" stroke-linejoin="round"/>
      </g>
      <text x="40" y="95" text-anchor="middle" class="icon-label">dashboard</text>
    </g>
  </g>
  
  <!-- Movement & Flow -->
  <text x="60" y="400" class="category-label">Movement &amp; Flow</text>
  <g transform="translate(60, 420)">
    <!-- Row 1 -->
    <g transform="translate(0, 0)">
      <rect width="80" height="80" rx="8" fill="white" stroke="#E4E7E9" stroke-width="1"/>
      <g transform="translate(40, 40)">
        <line x1="5" y1="12" x2="19" y2="12" stroke="#FF943B" stroke-width="1.5" stroke-linecap="round" stroke-linejoin="round"/>
        <polyline points="12 5 19 12 12 19" stroke="#FF943B" stroke-width="1.5" stroke-linecap="round" stroke-linejoin="round"/>
      </g>
      <text x="40" y="95" text-anchor="middle" class="icon-label">arrow-right</text>
    </g>
    <g transform="translate(100, 0)">
      <rect width="80" height="80" rx="8" fill="white" stroke="#E4E7E9" stroke-width="1"/>
      <g transform="translate(40, 40)">
        <polyline points="17 1 21 5 17 9" stroke="#FF943B" stroke-width="1.5" stroke-linecap="round" stroke-linejoin="round"/>
        <path d="M3 11V9a4 4 0 014-4h14" stroke="#FF943B" stroke-width="1.5" stroke-linecap="round" stroke-linejoin="round"/>
        <polyline points="7 23 3 19 7 15" stroke="#FF943B" stroke-width="1.5" stroke-linecap="round" stroke-linejoin="round"/>
        <path d="M21 13v2a4 4 0 01-4 4H3" stroke="#FF943B" stroke-width="1.5" stroke-linecap="round" stroke-linejoin="round"/>
      </g>
      <text x="40" y="95" text-anchor="middle" class="icon-label">transfer</text>
    </g>
    <g transform="translate(200, 0)">
      <rect width="80" height="80" rx="8" fill="white" stroke="#E4E7E9" stroke-width="1"/>
      <g transform="translate(40, 40)">
        <path d="M22 11.08V12a10 10 0 11-5.93-9.14" stroke="#FF943B" stroke-width="1.5" stroke-linecap="round" stroke-linejoin="round"/>
        <polyline points="22 4 12 14.01 9 11.01" stroke="#FF943B" stroke-width="1.5" stroke-linecap="round" stroke-linejoin="round"/>
      </g>
      <text x="40" y="95" text-anchor="middle" class="icon-label">delivered</text>
    </g>
    <g transform="translate(300, 0)">
      <rect width="80" height="80" rx="8" fill="white" stroke="#E4E7E9" stroke-width="1"/>
      <g transform="translate(40, 40)">
        <circle cx="12" cy="12" r="10" stroke="#FF943B" stroke-width="1.5" stroke-linecap="round" stroke-linejoin="round"/>
        <polyline points="12 6 12 12 16 14" stroke="#FF943B" stroke-width="1.5" stroke-linecap="round" stroke-linejoin="round"/>
      </g>
      <text x="40" y="95" text-anchor="middle" class="icon-label">in-transit</text>
    </g>
    <!-- Row 2 -->
    <g transform="translate(0, 120)">
      <rect width="80" height="80" rx="8" fill="white" stroke="#E4E7E9" stroke-width="1"/>
      <g transform="translate(40, 40)">
        <path d="M4 14.899A7 7 0 1115.71 8h1.79a4.5 4.5 0 012.5 8.242" stroke="#FF943B" stroke-width="1.5" stroke-linecap="round" stroke-linejoin="round"/>
        <path d="M12 12v9" stroke="#FF943B" stroke-width="1.5" stroke-linecap="round" stroke-linejoin="round"/>
        <path d="M8 17l4 4 4-4" stroke="#FF943B" stroke-width="1.5" stroke-linecap="round" stroke-linejoin="round"/>
      </g>
      <text x="40" y="95" text-anchor="middle" class="icon-label">loading</text>
    </g>
    <g transform="translate(100, 120)">
      <rect width="80" height="80" rx="8" fill="white" stroke="#E4E7E9" stroke-width="1"/>
      <g transform="translate(40, 40)">
        <path d="M4 14.899A7 7 0 1115.71 8h1.79a4.5 4.5 0 012.5 8.242" stroke="#FF943B" stroke-width="1.5" stroke-linecap="round" stroke-linejoin="round"/>
        <path d="M12 21v-9" stroke="#FF943B" stroke-width="1.5" stroke-linecap="round" stroke-linejoin="round"/>
        <path d="M8 12l4-4 4 4" stroke="#FF943B" stroke-width="1.5" stroke-linecap="round" stroke-linejoin="round"/>
      </g>
      <text x="40" y="95" text-anchor="middle" class="icon-label">unloading</text>
    </g>
    <g transform="translate(200, 120)">
      <rect width="80" height="80" rx="8" fill="white" stroke="#E4E7E9" stroke-width="1"/>
      <g transform="translate(40, 40)">
        <polyline points="23 4 23 10 17 10" stroke="#FF943B" stroke-width="1.5" stroke-linecap="round" stroke-linejoin="round"/>
        <polyline points="1 20 1 14 7 14" stroke="#FF943B" stroke-width="1.5" stroke-linecap="round" stroke-linejoin="round"/>
        <path d="M3.51 9a9 9 0 0114.85-3.36L23 10M1 14l4.64 4.36A9 9 0 0020.49 15" stroke="#FF943B" stroke-width="1.5" stroke-linecap="round" stroke-linejoin="round"/>
      </g>
      <text x="40" y="95" text-anchor="middle" class="icon-label">sync</text>
    </g>
    <g transform="translate(300, 120)">
      <rect width="80" height="80" rx="8" fill="white" stroke="#E4E7E9" stroke-width="1"/>
      <g transform="translate(40, 40)">
        <line x1="22" y1="2" x2="11" y2="13" stroke="#FF943B" stroke-width="1.5" stroke-linecap="round" stroke-linejoin="round"/>
        <polygon points="22 2 15 22 11 13 2 9 22 2" stroke="#FF943B" stroke-width="1.5" stroke-linecap="round" stroke-linejoin="round"/>
      </g>
      <text x="40" y="95" text-anchor="middle" class="icon-label">dispatch</text>
    </g>
  </g>
  
  <!-- Compliance & Safety -->
  <text x="60" y="670" class="category-label">Compliance &amp; Safety</text>
  <g transform="translate(60, 690)">
    <!-- Row 1 -->
    <g transform="translate(0, 0)">
      <rect width="80" height="80" rx="8" fill="white" stroke="#E4E7E9" stroke-width="1"/>
      <g transform="translate(40, 40)">
        <path d="M12 22s8-4 8-10V5l-8-3-8 3v7c0 6 8 10 8 10z" stroke="#FF943B" stroke-width="1.5" stroke-linecap="round" stroke-linejoin="round"/>
      </g>
      <text x="40" y="95" text-anchor="middle" class="icon-label">secure</text>
    </g>
    <g transform="translate(100, 0)">
      <rect width="80" height="80" rx="8" fill="white" stroke="#E4E7E9" stroke-width="1"/>
      <g transform="translate(40, 40)">
        <path d="M9 11l3 3L22 4" stroke="#FF943B" stroke-width="1.5" stroke-linecap="round" stroke-linejoin="round"/>
        <path d="M21 12v7a2 2 0 01-2 2H5a2 2 0 01-2-2V5a2 2 0 012-2h11" stroke="#FF943B" stroke-width="1.5" stroke-linecap="round" stroke-linejoin="round"/>
      </g>
      <text x="40" y="95" text-anchor="middle" class="icon-label">verified</text>
    </g>
    <g transform="translate(200, 0)">
      <rect width="80" height="80" rx="8" fill="white" stroke="#E4E7E9" stroke-width="1"/>
      <g transform="translate(40, 40)">
        <path d="M10.29 3.86L1.82 18a2 2 0 001.71 3h16.94a2 2 0 001.71-3L13.71 3.86a2 2 0 00-3.42 0z" stroke="#FF943B" stroke-width="1.5" stroke-linecap="round" stroke-linejoin="round"/>
        <line x1="12" y1="9" x2="12" y2="13" stroke="#FF943B" stroke-width="1.5" stroke-linecap="round" stroke-linejoin="round"/>
        <line x1="12" y1="17" x2="12.01" y2="17" stroke="#FF943B" stroke-width="1.5" stroke-linecap="round" stroke-linejoin="round"/>
      </g>
      <text x="40" y="95" text-anchor="middle" class="icon-label">warning</text>
    </g>
    <g transform="translate(300, 0)">
      <rect width="80" height="80" rx="8" fill="white" stroke="#E4E7E9" stroke-width="1"/>
      <g transform="translate(40, 40)">
        <circle cx="12" cy="12" r="10" stroke="#FF943B" stroke-width="1.5" stroke-linecap="round" stroke-linejoin="round"/>
        <line x1="15" y1="9" x2="9" y2="15" stroke="#FF943B" stroke-width="1.5" stroke-linecap="round" stroke-linejoin="round"/>
        <line x1="9" y1="9" x2="15" y2="15" stroke="#FF943B" stroke-width="1.5" stroke-linecap="round" stroke-linejoin="round"/>
      </g>
      <text x="40" y="95" text-anchor="middle" class="icon-label">error</text>
    </g>
    <!-- Row 2 -->
    <g transform="translate(0, 120)">
      <rect width="80" height="80" rx="8" fill="white" stroke="#E4E7E9" stroke-width="1"/>
      <g transform="translate(40, 40)">
        <circle cx="12" cy="12" r="10" stroke="#FF943B" stroke-width="1.5" stroke-linecap="round" stroke-linejoin="round"/>
        <path d="M12 16v-4M12 8h.01" stroke="#FF943B" stroke-width="1.5" stroke-linecap="round" stroke-linejoin="round"/>
      </g>
      <text x="40" y="95" text-anchor="middle" class="icon-label">info</text>
    </g>
    <g transform="translate(100, 120)">
      <rect width="80" height="80" rx="8" fill="white" stroke="#E4E7E9" stroke-width="1"/>
      <g transform="translate(40, 40)">
        <rect x="3" y="11" width="18" height="11" rx="2" stroke="#FF943B" stroke-width="1.5" stroke-linecap="round" stroke-linejoin="round"/>
        <path d="M7 11V7a5 5 0 0110 0v4" stroke="#FF943B" stroke-width="1.5" stroke-linecap="round" stroke-linejoin="round"/>
      </g>
      <text x="40" y="95" text-anchor="middle" class="icon-label">locked</text>
    </g>
    <g transform="translate(200, 120)">
      <rect width="80" height="80" rx="8" fill="white" stroke="#E4E7E9" stroke-width="1"/>
      <g transform="translate(40, 40)">
        <rect x="3" y="11" width="18" height="11" rx="2" stroke="#FF943B" stroke-width="1.5" stroke-linecap="round" stroke-linejoin="round"/>
        <path d="M7 11V7a5 5 0 019.9-1" stroke="#FF943B" stroke-width="1.5" stroke-linecap="round" stroke-linejoin="round"/>
      </g>
      <text x="40" y="95" text-anchor="middle" class="icon-label">unlocked</text>
    </g>
    <g transform="translate(300, 120)">
      <rect width="80" height="80" rx="8" fill="white" stroke="#E4E7E9" stroke-width="1"/>
      <g transform="translate(40, 40)">
        <path d="M14 2H6a2 2 0 00-2 2v16a2 2 0 002 2h12a2 2 0 002-2V8z" stroke="#FF943B" stroke-width="1.5" stroke-linecap="round" stroke-linejoin="round"/>
        <polyline points="14 2 14 8 20 8" stroke="#FF943B" stroke-width="1.5" stroke-linecap="round" stroke-linejoin="round"/>
        <line x1="16" y1="13" x2="8" y2="13" stroke="#FF943B" stroke-width="1.5" stroke-linecap="round" stroke-linejoin="round"/>
        <line x1="16" y1="17" x2="8" y2="17" stroke="#FF943B" stroke-width="1.5" stroke-linecap="round" stroke-linejoin="round"/>
        <polyline points="10 9 9 9 8 9" stroke="#FF943B" stroke-width="1.5" stroke-linecap="round" stroke-linejoin="round"/>
      </g>
      <text x="40" y="95" text-anchor="middle" class="icon-label">document</text>
    </g>
  </g>
  
  <!-- Data & Analytics -->
  <text x="60" y="940" class="category-label">Data &amp; Analytics</text>
  <g transform="translate(60, 960)">
    <!-- Row 1 -->
    <g transform="translate(0, 0)">
      <rect width="80" height="80" rx="8" fill="white" stroke="#E4E7E9" stroke-width="1"/>
      <g transform="translate(40, 40)">
        <line x1="18" y1="20" x2="18" y2="10" stroke="#FF943B" stroke-width="1.5" stroke-linecap="round" stroke-linejoin="round"/>
        <line x1="12" y1="20" x2="12" y2="4" stroke="#FF943B" stroke-width="1.5" stroke-linecap="round" stroke-linejoin="round"/>
        <line x1="6" y1="20" x2="6" y2="14" stroke="#FF943B" stroke-width="1.5" stroke-linecap="round" stroke-linejoin="round"/>
      </g>
      <text x="40" y="95" text-anchor="middle" class="icon-label">chart-bar</text>
    </g>
    <g transform="translate(100, 0)">
      <rect width="80" height="80" rx="8" fill="white" stroke="#E4E7E9" stroke-width="1"/>
      <g transform="translate(40, 40)">
        <polyline points="22 12 18 12 15 21 9 3 6 12 2 12" stroke="#FF943B" stroke-width="1.5" stroke-linecap="round" stroke-linejoin="round"/>
      </g>
      <text x="40" y="95" text-anchor="middle" class="icon-label">analytics</text>
    </g>
    <g transform="translate(200, 0)">
      <rect width="80" height="80" rx="8" fill="white" stroke="#E4E7E9" stroke-width="1"/>
      <g transform="translate(40, 40)">
        <path d="M21.21 15.89A10 10 0 118 2.83" stroke="#FF943B" stroke-width="1.5" stroke-linecap="round" stroke-linejoin="round"/>
        <path d="M22 12A10 10 0 0012 2v10z" stroke="#FF943B" stroke-width="1.5" stroke-linecap="round" stroke-linejoin="round"/>
      </g>
      <text x="40" y="95" text-anchor="middle" class="icon-label">chart-pie</text>
    </g>
    <g transform="translate(300, 0)">
      <rect width="80" height="80" rx="8" fill="white" stroke="#E4E7E9" stroke-width="1"/>
      <g transform="translate(40, 40)">
        <polyline points="23 6 13.5 15.5 8.5 10.5 1 18" stroke="#FF943B" stroke-width="1.5" stroke-linecap="round" stroke-linejoin="round"/>
        <polyline points="17 6 23 6 23 12" stroke="#FF943B" stroke-width="1.5" stroke-linecap="round" stroke-linejoin="round"/>
      </g>
      <text x="40" y="95" text-anchor="middle" class="icon-label">trending-up</text>
    </g>
    <!-- Row 2 -->
    <g transform="translate(0, 120)">
      <rect width="80" height="80" rx="8" fill="white" stroke="#E4E7E9" stroke-width="1"/>
      <g transform="translate(40, 40)">
        <polyline points="23 18 13.5 8.5 8.5 13.5 1 6" stroke="#FF943B" stroke-width="1.5" stroke-linecap="round" stroke-linejoin="round"/>
        <polyline points="17 18 23 18 23 12" stroke="#FF943B" stroke-width="1.5" stroke-linecap="round" stroke-linejoin="round"/>
      </g>
      <text x="40" y="95" text-anchor="middle" class="icon-label">trending-down</text>
    </g>
    <g transform="translate(100, 120)">
      <rect width="80" height="80" rx="8" fill="white" stroke="#E4E7E9" stroke-width="1"/>
      <g transform="translate(40, 40)">
        <ellipse cx="12" cy="5" rx="9" ry="3" stroke="#FF943B" stroke-width="1.5" stroke-linecap="round" stroke-linejoin="round"/>
        <path d="M21 12c0 1.66-4 3-9 3s-9-1.34-9-3" stroke="#FF943B" stroke-width="1.5" stroke-linecap="round" stroke-linejoin="round"/>
        <path d="M3 5v14c0 1.66 4 3 9 3s9-1.34 9-3V5" stroke="#FF943B" stroke-width="1.5" stroke-linecap="round" stroke-linejoin="round"/>
      </g>
      <text x="40" y="95" text-anchor="middle" class="icon-label">database</text>
    </g>
    <g transform="translate(200, 120)">
      <rect width="80" height="80" rx="8" fill="white" stroke="#E4E7E9" stroke-width="1"/>
      <g transform="translate(40, 40)">
        <rect x="4" y="4" width="16" height="16" rx="2" stroke="#FF943B" stroke-width="1.5" stroke-linecap="round" stroke-linejoin="round"/>
        <rect x="9" y="9" width="6" height="6" stroke="#FF943B" stroke-width="1.5" stroke-linecap="round" stroke-linejoin="round"/>
        <line x1="9" y1="1" x2="9" y2="4" stroke="#FF943B" stroke-width="1.5" stroke-linecap="round" stroke-linejoin="round"/>
        <line x1="15" y1="1" x2="15" y2="4" stroke="#FF943B" stroke-width="1.5" stroke-linecap="round" stroke-linejoin="round"/>
        <line x1="9" y1="20" x2="9" y2="23" stroke="#FF943B" stroke-width="1.5" stroke-linecap="round" stroke-linejoin="round"/>
        <line x1="15" y1="20" x2="15" y2="23" stroke="#FF943B" stroke-width="1.5" stroke-linecap="round" stroke-linejoin="round"/>
        <line x1="20" y1="9" x2="23" y2="9" stroke="#FF943B" stroke-width="1.5" stroke-linecap="round" stroke-linejoin="round"/>
        <line x1="20" y1="14" x2="23" y2="14" stroke="#FF943B" stroke-width="1.5" stroke-linecap="round" stroke-linejoin="round"/>
        <line x1="1" y1="9" x2="4" y2="9" stroke="#FF943B" stroke-width="1.5" stroke-linecap="round" stroke-linejoin="round"/>
        <line x1="1" y1="14" x2="4" y2="14" stroke="#FF943B" stroke-width="1.5" stroke-linecap="round" stroke-linejoin="round"/>
      </g>
      <text x="40" y="95" text-anchor="middle" class="icon-label">processor</text>
    </g>
    <g transform="translate(300, 120)">
      <rect width="80" height="80" rx="8" fill="white" stroke="#E4E7E9" stroke-width="1"/>
      <g transform="translate(40, 40)">
        <path d="M12 2L2 7l10 5 10-5-10-5z" stroke="#FF943B" stroke-width="1.5" stroke-linecap="round" stroke-linejoin="round"/>
        <path d="M2 17l10 5 10-5M2 12l10 5 10-5" stroke="#FF943B" stroke-width="1.5" stroke-linecap="round" stroke-linejoin="round"/>
      </g>
      <text x="40" y="95" text-anchor="middle" class="icon-label">network</text>
    </g>
  </g>
  
  <!-- Actions -->
  <text x="60" y="1210" class="category-label">Actions</text>
  <g transform="translate(60, 1230)">
    <!-- Row 1 -->
    <g transform="translate(0, 0)">
      <rect width="80" height="80" rx="8" fill="white" stroke="#E4E7E9" stroke-width="1"/>
      <g transform="translate(40, 40)">
        <circle cx="11" cy="11" r="8" stroke="#FF943B" stroke-width="1.5" stroke-linecap="round" stroke-linejoin="round"/>
        <line x1="21" y1="21" x2="16.65" y2="16.65" stroke="#FF943B" stroke-width="1.5" stroke-linecap="round" stroke-linejoin="round"/>
      </g>
      <text x="40" y="95" text-anchor="middle" class="icon-label">search</text>
    </g>
    <g transform="translate(100, 0)">
      <rect width="80" height="80" rx="8" fill="white" stroke="#E4E7E9" stroke-width="1"/>
      <g transform="translate(40, 40)">
        <line x1="12" y1="5" x2="12" y2="19" stroke="#FF943B" stroke-width="1.5" stroke-linecap="round" stroke-linejoin="round"/>
        <line x1="5" y1="12" x2="19" y2="12" stroke="#FF943B" stroke-width="1.5" stroke-linecap="round" stroke-linejoin="round"/>
      </g>
      <text x="40" y="95" text-anchor="middle" class="icon-label">add</text>
    </g>
    <g transform="translate(200, 0)">
      <rect width="80" height="80" rx="8" fill="white" stroke="#E4E7E9" stroke-width="1"/>
      <g transform="translate(40, 40)">
        <line x1="5" y1="12" x2="19" y2="12" stroke="#FF943B" stroke-width="1.5" stroke-linecap="round" stroke-linejoin="round"/>
      </g>
      <text x="40" y="95" text-anchor="middle" class="icon-label">remove</text>
    </g>
    <g transform="translate(300, 0)">
      <rect width="80" height="80" rx="8" fill="white" stroke="#E4E7E9" stroke-width="1"/>
      <g transform="translate(40, 40)">
        <path d="M11 4H4a2 2 0 00-2 2v14a2 2 0 002 2h14a2 2 0 002-2v-7" stroke="#FF943B" stroke-width="1.5" stroke-linecap="round" stroke-linejoin="round"/>
        <path d="M18.5 2.5a2.121 2.121 0 013 3L12 15l-4 1 1-4 9.5-9.5z" stroke="#FF943B" stroke-width="1.5" stroke-linecap="round" stroke-linejoin="round"/>
      </g>
      <text x="40" y="95" text-anchor="middle" class="icon-label">edit</text>
    </g>
    <!-- Row 2 -->
    <g transform="translate(0, 120)">
      <rect width="80" height="80" rx="8" fill="white" stroke="#E4E7E9" stroke-width="1"/>
      <g transform="translate(40, 40)">
        <polyline points="3 6 5 6 21 6" stroke="#FF943B" stroke-width="1.5" stroke-linecap="round" stroke-linejoin="round"/>
        <path d="M19 6v14a2 2 0 01-2 2H7a2 2 0 01-2-2V6m3 0V4a2 2 0 012-2h4a2 2 0 012 2v2" stroke="#FF943B" stroke-width="1.5" stroke-linecap="round" stroke-linejoin="round"/>
      </g>
      <text x="40" y="95" text-anchor="middle" class="icon-label">delete</text>
    </g>
    <g transform="translate(100, 120)">
      <rect width="80" height="80" rx="8" fill="white" stroke="#E4E7E9" stroke-width="1"/>
      <g transform="translate(40, 40)">
        <path d="M21 15v4a2 2 0 01-2 2H5a2 2 0 01-2-2v-4" stroke="#FF943B" stroke-width="1.5" stroke-linecap="round" stroke-linejoin="round"/>
        <polyline points="7 10 12 15 17 10" stroke="#FF943B" stroke-width="1.5" stroke-linecap="round" stroke-linejoin="round"/>
        <line x1="12" y1="15" x2="12" y2="3" stroke="#FF943B" stroke-width="1.5" stroke-linecap="round" stroke-linejoin="round"/>
      </g>
      <text x="40" y="95" text-anchor="middle" class="icon-label">download</text>
    </g>
    <g transform="translate(200, 120)">
      <rect width="80" height="80" rx="8" fill="white" stroke="#E4E7E9" stroke-width="1"/>
      <g transform="translate(40, 40)">
        <path d="M21 15v4a2 2 0 01-2 2H5a2 2 0 01-2-2v-4" stroke="#FF943B" stroke-width="1.5" stroke-linecap="round" stroke-linejoin="round"/>
        <polyline points="17 8 12 3 7 8" stroke="#FF943B" stroke-width="1.5" stroke-linecap="round" stroke-linejoin="round"/>
        <line x1="12" y1="3" x2="12" y2="15" stroke="#FF943B" stroke-width="1.5" stroke-linecap="round" stroke-linejoin="round"/>
      </g>
      <text x="40" y="95" text-anchor="middle" class="icon-label">upload</text>
    </g>
    <g transform="translate(300, 120)">
      <rect width="80" height="80" rx="8" fill="white" stroke="#E4E7E9" stroke-width="1"/>
      <g transform="translate(40, 40)">
        <circle cx="12" cy="12" r="3" stroke="#FF943B" stroke-width="1.5" stroke-linecap="round" stroke-linejoin="round"/>
        <path d="M19.4 15a1.65 1.65 0 00.33 1.82l.06.06a2 2 0 010 2.83 2 2 0 01-2.83 0l-.06-.06a1.65 1.65 0 00-1.82-.33 1.65 1.65 0 00-1 1.51V21a2 2 0 01-2 2 2 2 0 01-2-2v-.09A1.65 1.65 0 009 19.4a1.65 1.65 0 00-1.82.33l-.06.06a2 2 0 01-2.83 0 2 2 0 010-2.83l.06-.06a1.65 1.65 0 00.33-1.82 1.65 1.65 0 00-1.51-1H3a2 2 0 01-2-2 2 2 0 012-2h.09A1.65 1.65 0 004.6 9a1.65 1.65 0 00-.33-1.82l-.06-.06a2 2 0 010-2.83 2 2 0 012.83 0l.06.06a1.65 1.65 0 001.82.33H9a1.65 1.65 0 001-1.51V3a2 2 0 012-2 2 2 0 012 2v.09a1.65 1.65 0 001 1.51 1.65 1.65 0 001.82-.33l.06-.06a2 2 0 012.83 0 2 2 0 010 2.83l-.06.06a1.65 1.65 0 00-.33 1.82V9a1.65 1.65 0 001.51 1H21a2 2 0 012 2 2 2 0 01-2 2h-.09a1.65 1.65 0 00-1.51 1z" stroke="#FF943B" stroke-width="1.5" stroke-linecap="round" stroke-linejoin="round"/>
      </g>
      <text x="40" y="95" text-anchor="middle" class="icon-label">settings</text>
    </g>
  </g>
  
  <!-- Grid Construction Example -->
  <g transform="translate(600, 150)">
    <text x="0" y="-10" class="category-label">Icon Construction</text>
    <rect width="300" height="300" rx="12" fill="white" stroke="#E4E7E9" stroke-width="1"/>
    
    <!-- Grid lines -->
    <g opacity="0.2">
      <line x1="0" y1="100" x2="300" y2="100" stroke="#FF943B" stroke-width="0.5" stroke-dasharray="2,2"/>
      <line x1="0" y1="200" x2="300" y2="200" stroke="#FF943B" stroke-width="0.5" stroke-dasharray="2,2"/>
      <line x1="100" y1="0" x2="100" y2="300" stroke="#FF943B" stroke-width="0.5" stroke-dasharray="2,2"/>
      <line x1="200" y1="0" x2="200" y2="300" stroke="#FF943B" stroke-width="0.5" stroke-dasharray="2,2"/>
    </g>
    
    <!-- Safe area -->
    <rect x="50" y="50" width="200" height="200" stroke="#FFD91C" stroke-width="1" fill="none" opacity="0.5" stroke-dasharray="4,4"/>
    
    <!-- Example icon at scale -->
    <g transform="translate(100, 100) scale(8)">
      <circle cx="12" cy="12" r="8" stroke="#FF943B" stroke-width="1.5" fill="none" stroke-linecap="round" stroke-linejoin="round"/>
      <circle cx="12" cy="12" r="2" fill="#FF943B"/>
      <line x1="12" y1="4" x2="12" y2="6" stroke="#FF943B" stroke-width="1.5" stroke-linecap="round"/>
      <line x1="12" y1="18" x2="12" y2="20" stroke="#FF943B" stroke-width="1.5" stroke-linecap="round"/>
      <line x1="4" y1="12" x2="6" y2="12" stroke="#FF943B" stroke-width="1.5" stroke-linecap="round"/>
      <line x1="18" y1="12" x2="20" y2="12" stroke="#FF943B" stroke-width="1.5" stroke-linecap="round"/>
    </g>
    
    <!-- Annotations -->
    <text x="310" y="50" class="icon-label">24×24px canvas</text>
    <text x="310" y="70" class="icon-label">20×20px live area</text>
    <text x="310" y="90" class="icon-label">1.5px stroke</text>
    <text x="310" y="110" class="icon-label">2px corner radius</text>
    <text x="310" y="130" class="icon-label">round line caps</text>
  </g>
</svg>
