<?xml version="1.0" encoding="UTF-8"?>
<svg width="1732px" height="301px" viewBox="0 0 1732 301" version="1.1" xmlns="http://www.w3.org/2000/svg" xmlns:xlink="http://www.w3.org/1999/xlink">
    <title>Group 3</title>
    <defs>
        <linearGradient x1="50%" y1="0%" x2="50%" y2="100%" id="linearGradient-1">
            <stop stop-color="#FF943B" offset="0%"></stop>
            <stop stop-color="#FFD91C" offset="100%"></stop>
        </linearGradient>
    </defs>
    <g id="Page-1" stroke="none" stroke-width="1" fill="none" fill-rule="evenodd">
        <g id="Group-3">
            <g id="Group-2" fill-rule="nonzero">
                <path d="M84.616314,162 C96.507553,162 107.492447,160.767785 117.570997,158.303356 C127.649547,155.838926 136.459215,152.649664 144,148.73557 L144,148.73557 L144,67.191946 L80.483384,67.191946 L80.483384,97.2 L109.848943,97.2 L109.848943,125.251007 C106.513595,126.700671 102.888218,127.751678 98.97281,128.404027 C95.057402,129.056376 90.924471,129.38255 86.574018,129.38255 C79.033233,129.38255 72.326284,128.186577 66.453172,125.794631 C60.58006,123.402685 55.649547,120.068456 51.661631,115.791946 C47.673716,111.515436 44.664653,106.405369 42.634441,100.461745 C40.60423,94.518121 39.589124,87.994631 39.589124,80.891275 C39.589124,73.932886 40.712991,67.518121 42.960725,61.64698 C45.208459,55.775839 48.362538,50.702013 52.422961,46.425503 C56.483384,42.148993 61.268882,38.814765 66.779456,36.422819 C72.29003,34.030872 78.308157,32.834899 84.833837,32.834899 C92.374622,32.834899 99.117825,34.175839 105.063444,36.857718 C111.009063,39.539597 115.794562,42.98255 119.41994,47.186577 L119.41994,47.186577 L142.912387,20.440268 C136.386707,14.206711 127.903323,9.241611 117.462236,5.544966 C107.021148,1.848322 95.70997,0 83.528701,0 C71.782477,0 60.833837,1.884564 50.682779,5.653691 C40.531722,9.422819 31.685801,14.822819 24.145015,21.853691 C16.60423,28.884564 10.694864,37.401342 6.416918,47.404027 C2.138973,57.406711 0,68.569128 0,80.891275 C0,93.068456 2.102719,104.122148 6.308157,114.052349 C10.513595,123.98255 16.350453,132.499329 23.818731,139.602685 C31.287009,146.70604 40.205438,152.214765 50.574018,156.128859 C60.942598,160.042953 72.29003,162 84.616314,162 Z" id="Path" fill="#FFFFFF"></path>
                <path d="M232.756477,4 L233.923227,4.006327 C240.914687,4.082246 247.743387,4.841436 254.409326,6.283898 C261.445596,7.806497 267.756477,10.380414 273.341969,14.00565 C278.927461,17.630885 283.388601,22.416196 286.725389,28.361582 C290.062176,34.306968 291.73057,41.702448 291.73057,50.548023 C291.73057,60.988701 288.901554,69.76177 283.243523,76.867232 C277.585492,83.972693 269.751295,89.048023 259.740933,92.09322 L259.740933,92.09322 L300,158 L256.476684,158 L223.181347,96.878531 L210.559585,96.878531 L210.559585,158 L174,158 L174,4 L232.756477,4 Z M229.97561,34 L210,34 L210,70 L227.780488,70 C230.853659,70 234,69.745455 237.219512,69.236364 C240.439024,68.727273 243.365854,67.818182 246,66.509091 C248.634146,65.2 250.792683,63.309091 252.47561,60.836364 C254.158537,58.363636 255,55.163636 255,51.236364 C255,47.6 254.231707,44.654545 252.695122,42.4 C251.158537,40.145455 249.182927,38.4 246.768293,37.163636 C244.353659,35.927273 241.646341,35.090909 238.646341,34.654545 C235.646341,34.218182 232.756098,34 229.97561,34 L229.97561,34 Z" id="Combined-Shape" fill="#FFFFFF"></path>
                <path d="M382.673806,162 C392.6771,162 401.7743,160.47868 409.965404,157.436039 C418.156507,154.393398 425.151565,150.155433 430.950577,144.722146 C436.749588,139.288858 441.207578,132.768913 444.324547,125.162311 C447.441516,117.555708 449,109.116002 449,99.843191 L449,99.843191 L449,4 L411.813839,4 L411.813839,96.80055 C411.813839,101.002293 411.306425,104.986703 410.291598,108.753783 C409.276771,112.520862 407.609555,115.8895 405.289951,118.859697 C402.970346,121.829895 399.962109,124.184319 396.265239,125.922971 C392.568369,127.661623 388.110379,128.530949 382.891269,128.530949 C377.672158,128.530949 373.214168,127.661623 369.517298,125.922971 C365.820428,124.184319 362.848435,121.829895 360.601318,118.859697 C358.354201,115.8895 356.686985,112.520862 355.599671,108.753783 C354.512356,104.986703 353.968699,101.002293 353.968699,96.80055 L353.968699,96.80055 L353.968699,4 L317,4 L317,99.843191 C317,109.116002 318.522241,117.555708 321.566722,125.162311 C324.611203,132.768913 328.960461,139.288858 334.614498,144.722146 C340.268534,150.155433 347.15486,154.393398 355.273476,157.436039 C363.392092,160.47868 372.525535,162 382.673806,162 Z" id="Path" fill="#FFFFFF"></path>
                <path d="M534.64804,4 L535.74381,4.004729 C543.7568,4.074081 551.27144,4.906309 558.28771,6.501412 C565.62291,8.169021 572.01397,10.851695 577.46089,14.549435 C582.90782,18.247175 587.19274,23.104991 590.31564,29.122881 C593.43855,35.140772 595,42.572505 595,51.418079 C595,60.408663 593.32961,67.985405 589.98883,74.148305 C586.64804,80.311205 582.14525,85.277778 576.48045,89.048023 C570.81564,92.818267 564.27933,95.573446 556.87151,97.313559 C549.46369,99.053672 541.76536,99.923729 533.77654,99.923729 L533.77654,99.923729 L515.25698,99.923729 L515.25698,158 L478,158 L478,4 L534.64804,4 Z M532.15385,34 L516,34 L516,70 L531.50769,70 C534.95385,70 538.25641,69.712575 541.41538,69.137725 C544.57436,68.562874 547.41026,67.556886 549.92308,66.11976 C552.4359,64.682635 554.41026,62.778443 555.84615,60.407186 C557.28205,58.035928 558,55.053892 558,51.461078 C558,47.868263 557.28205,44.922156 555.84615,42.622754 C554.41026,40.323353 552.47179,38.526946 550.03077,37.233533 C547.58974,35.94012 544.82564,35.077844 541.73846,34.646707 C538.65128,34.215569 535.45641,34 532.15385,34 L532.15385,34 Z" id="Combined-Shape" fill="#FFFFFF"></path>
                <path d="M693.89105,0 C705.94812,0 717.13359,1.882038 727.44747,5.646113 C737.76135,9.410188 746.65888,14.766756 754.14008,21.715818 C761.62127,28.664879 767.46822,37.097855 771.68093,47.014745 C775.89364,56.931635 778,68.042895 778,80.348525 C778,92.509383 775.89364,103.620643 771.68093,113.682306 C767.46822,123.743968 761.62127,132.357909 754.14008,139.524129 C746.65888,146.690349 737.76135,152.227882 727.44747,156.136729 C717.13359,160.045576 705.94812,162 693.89105,162 C681.83398,162 670.68482,160.045576 660.44358,156.136729 C650.20233,152.227882 641.34112,146.690349 633.85992,139.524129 C626.37873,132.357909 620.53178,123.743968 616.31907,113.682306 C612.10636,103.620643 610,92.509383 610,80.348525 C610,68.042895 612.10636,56.931635 616.31907,47.014745 C620.53178,37.097855 626.37873,28.664879 633.85992,21.715818 C641.34112,14.766756 650.20233,9.410188 660.44358,5.646113 C670.68482,1.882038 681.83398,0 693.89105,0 Z M693.89136,33 C687.37284,33 681.43374,34.198394 676.07407,36.595183 C670.7144,38.991972 666.07901,42.260321 662.1679,46.400229 C658.25679,50.540138 655.25103,55.515291 653.15062,61.325688 C651.05021,67.136086 650,73.382263 650,80.06422 C650,87.036697 651.08642,93.46445 653.25926,99.347477 C655.4321,105.230505 658.43786,110.278287 662.27654,114.490826 C666.11523,118.703364 670.7144,122.008028 676.07407,124.404817 C681.43374,126.801606 687.37284,128 693.89136,128 C700.40988,128 706.34897,126.801606 711.70864,124.404817 C717.06831,122.008028 721.7037,118.703364 725.61481,114.490826 C729.52593,110.278287 732.5679,105.230505 734.74074,99.347477 C736.91358,93.46445 738,87.036697 738,80.06422 C738,73.382263 736.91358,67.136086 734.74074,61.325688 C732.5679,55.515291 729.56214,50.540138 725.72346,46.400229 C721.88477,42.260321 717.24938,38.991972 711.81728,36.595183 C706.38519,34.198394 700.40988,33 693.89136,33 Z" id="Combined-Shape" fill="#FFFFFF"></path>
                <path d="M847.31054,162 C854.80776,162 862.08872,160.983871 869.15342,158.951613 C876.21811,156.919355 882.48983,153.798387 887.96858,149.58871 C893.44732,145.379032 897.80869,140.044355 901.05268,133.584677 C904.29667,127.125 905.91867,119.467742 905.91867,110.612903 C905.91867,102.919355 904.40481,96.495968 901.37708,91.342742 C898.34935,86.189516 894.52865,81.870968 889.91497,78.387097 C885.30129,74.903226 880.18299,72.108871 874.56007,70.004032 C868.93715,67.899194 863.5305,65.975806 858.34011,64.233871 C854.73567,63.072581 851.49168,61.947581 848.60813,60.858871 C845.72458,59.770161 843.23752,58.572581 841.14695,57.266129 C839.05638,55.959677 837.47043,54.435484 836.38909,52.693548 C835.30776,50.951613 834.7671,48.774194 834.7671,46.16129 C834.7671,43.112903 835.45194,40.608871 836.82163,38.649194 C838.19131,36.689516 839.8854,35.092742 841.90388,33.858871 C843.92237,32.625 846.19316,31.790323 848.71627,31.354839 C851.23937,30.919355 853.72643,30.701613 856.17745,30.701613 C860.9353,30.701613 865.87338,31.899194 870.99168,34.294355 C876.10998,36.689516 880.25508,39.919355 883.42699,43.983871 L883.42699,43.983871 L907,18.943548 C900.22366,12.701613 892.32994,7.983871 883.31885,4.790323 C874.30776,1.596774 865.47689,0 856.82625,0 C849.61738,0 842.48059,0.907258 835.4159,2.721774 C828.3512,4.53629 822.00739,7.403226 816.38447,11.322581 C810.76155,15.241935 806.21996,20.25 802.7597,26.346774 C799.29945,32.443548 797.56932,39.774194 797.56932,48.33871 C797.56932,55.306452 798.68669,61.221774 800.92144,66.084677 C803.15619,70.947581 806.11183,75.084677 809.78835,78.495968 C813.46488,81.907258 817.64603,84.701613 822.33179,86.879032 C827.01756,89.056452 831.81146,90.943548 836.71349,92.540323 C841.7597,94.137097 846.26525,95.625 850.23013,97.004032 C854.19501,98.383065 857.51109,99.907258 860.17837,101.576613 C862.84566,103.245968 864.90018,105.096774 866.34196,107.129032 C867.78373,109.16129 868.50462,111.629032 868.50462,114.532258 C868.50462,117.580645 867.92791,120.193548 866.77449,122.370968 C865.62107,124.548387 864.07116,126.290323 862.12477,127.596774 C860.17837,128.903226 857.90758,129.846774 855.31238,130.427419 C852.71719,131.008065 850.04991,131.298387 847.31054,131.298387 C841.25508,131.298387 835.16359,129.737903 829.03604,126.616935 C822.9085,123.495968 817.97043,119.612903 814.22181,114.967742 L814.22181,114.967742 L790,139.790323 C796.77634,146.903226 805.28281,152.383065 815.51941,156.229839 C825.75601,160.076613 836.35305,162 847.31054,162 Z M1007.3917,162 C1019.377,162 1030.49589,160.045576 1040.74838,156.136729 C1051.00086,152.227882 1059.84544,146.690349 1067.2821,139.524129 C1074.71876,132.357909 1080.53091,123.743968 1084.71855,113.682306 C1088.90618,103.620643 1091,92.509383 1091,80.348525 C1091,68.042895 1088.90618,56.931635 1084.71855,47.014745 C1080.53091,37.097855 1074.71876,28.664879 1067.2821,21.715818 C1059.84544,14.766756 1051.00086,9.410188 1040.74838,5.646113 C1030.49589,1.882038 1019.377,0 1007.3917,0 C995.4064,0 984.32361,1.882038 974.14332,5.646113 C963.96304,9.410188 955.15456,14.766756 947.7179,21.715818 C940.28124,28.664879 934.46909,37.097855 930.28145,47.014745 C926.09382,56.931635 924,68.042895 924,80.348525 C924,92.509383 926.09382,103.620643 930.28145,113.682306 C934.46909,123.743968 940.28124,132.357909 947.7179,139.524129 C955.15456,146.690349 963.96304,152.227882 974.14332,156.136729 C984.32361,160.045576 995.4064,162 1007.3917,162 Z M1006.89136,128 C1000.37284,128 994.43374,126.801606 989.07407,124.404817 C983.7144,122.008028 979.11523,118.703364 975.27654,114.490826 C971.43786,110.278287 968.4321,105.230505 966.25926,99.347477 C964.08642,93.46445 963,87.036697 963,80.06422 C963,73.382263 964.05021,67.136086 966.15062,61.325688 C968.25103,55.515291 971.25679,50.540138 975.1679,46.400229 C979.07901,42.260321 983.7144,38.991972 989.07407,36.595183 C994.43374,34.198394 1000.37284,33 1006.89136,33 C1013.40988,33 1019.38519,34.198394 1024.81728,36.595183 C1030.24938,38.991972 1034.88477,42.260321 1038.72346,46.400229 C1042.56214,50.540138 1045.5679,55.515291 1047.74074,61.325688 C1049.91358,67.136086 1051,73.382263 1051,80.06422 C1051,87.036697 1049.91358,93.46445 1047.74074,99.347477 C1045.5679,105.230505 1042.52593,110.278287 1038.61481,114.490826 C1034.7037,118.703364 1030.06831,122.008028 1024.70864,124.404817 C1019.34897,126.801606 1013.40988,128 1006.89136,128 Z M1212,158 L1212,125.590395 L1152.40807,125.590395 L1152.40807,4 L1115,4 L1115,158 L1212,158 Z M1264.02596,158 L1263.15575,49.025424 L1263.80841,49.025424 L1302.75031,158 L1328.85661,158 L1368.88628,49.025424 L1369.53894,49.025424 L1368.66873,158 L1405,158 L1405,4 L1351.26452,4 L1317.76143,102.751412 L1316.89122,102.751412 L1281.86527,4 L1229,4 L1229,158 L1264.02596,158 Z M1544,158 L1544,126.242938 L1472.73887,126.242938 L1472.73887,94.268362 L1536.41903,94.268362 L1536.41903,64.468927 L1472.73887,64.468927 L1472.73887,35.539548 L1540.10121,35.539548 L1540.10121,4 L1437,4 L1437,158 L1544,158 Z M1595.26147,158 L1627.58971,103.621469 L1661.21975,158 L1707,158 L1651.45619,76.649718 L1700.05702,4 L1656.88039,4 L1628.67455,51.853107 L1600.03477,4 L1555.33936,4 L1604.80807,76.649718 L1551,158 L1595.26147,158 Z" id="SOLMEX" fill="url(#linearGradient-1)"></path>
            </g>
            <text id="Soluciones-Logística" font-family="HelveticaNeue-Medium, Helvetica Neue" font-size="99" font-weight="400" letter-spacing="7.32" fill="#FFFFFF">
                <tspan x="0" y="280">Soluciones Logísticas de México</tspan>
            </text>
        </g>
    </g>
</svg>