<?xml version="1.0" encoding="UTF-8"?>
<svg width="489px" height="399px" viewBox="0 0 489 399" version="1.1" xmlns="http://www.w3.org/2000/svg" xmlns:xlink="http://www.w3.org/1999/xlink">
    <title>Group</title>
    <defs>
        <linearGradient x1="50%" y1="0%" x2="50%" y2="100%" id="linearGradient-1">
            <stop stop-color="#FF9C37" offset="0%"></stop>
            <stop stop-color="#FFD81C" offset="100%"></stop>
        </linearGradient>
    </defs>
    <g id="Page-1" stroke="none" stroke-width="1" fill="none" fill-rule="evenodd">
        <g id="Group" transform="translate(244.500000, 199.500000) scale(-1, 1) translate(-244.500000, -199.500000) translate(0.000000, -0.000000)" fill-rule="nonzero">
            <path d="M308.625805,58.7272727 L313.860461,58.7500386 L317.45353,58.7794036 L317.40231,58.7354154 L480.905532,58.7354154 L472.798757,63.9623119 L465.4985,68.6342754 L459.561772,72.3999617 L453.801227,76.0125079 L450.555348,78.022469 L448.033117,79.5664301 L445.043407,81.3682164 L443.391464,82.3452806 L441.906157,83.2076893 L440.587486,83.9554425 L439.43545,84.58854 L489,84.58854 L444.588137,116.273835 C444.638627,116.48737 444.680134,116.707321 444.720627,116.928109 L480.905532,116.930214 L471.092895,125.183982 L460.188682,134.304098 L451.024317,141.893708 L445.928867,146.052879 L446.019514,168.517334 L446.026739,172.278951 L446.024181,176.632317 L446.013084,179.60422 L445.992884,182.493333 L445.962354,185.312703 L445.94283,186.700312 L445.8945,189.439532 C446.082433,192.461167 446.176307,195.529197 446.175561,198.642389 L446.193552,268.767553 L446.175561,270.921184 C445.038676,341.143937 388.403057,397.855687 318.280535,398.982899 L316.151525,399 L176.045986,399 L173.895028,398.982553 C147.356554,398.551737 122.750152,390.163074 102.352398,376.09597 L101.083039,375.209403 L271.097708,375.207534 L272.772973,375.193945 C327.949564,374.298229 372.402831,329.235122 372.402831,273.776493 L372.399522,267.019515 L372.395163,264.80966 L372.377534,260.357209 C371.974784,188.044552 365.160066,100.356278 249.851817,98.493769 L246.10948,98.4635833 L245.252971,98.4673467 C216.658477,98.7130549 190.926449,110.974011 172.845505,130.456778 L172.837627,130.39892 L172.783877,130.456778 C172.460988,128.187151 172.293945,125.86725 172.293945,123.508285 C172.293945,103.160068 184.723013,85.7184235 202.394471,78.3789616 L202.146782,78.316893 C226.097043,65.4217736 256.463145,58.8955851 293.245088,58.7383276 L303.300935,58.7272727 L308.625805,58.7272727 Z M292.939138,69.1068161 L291.794363,69.1365363 L290.036615,69.1947638 L288.308398,69.2666968 L287.455902,69.307484 L286.611436,69.3513151 L284.947451,69.4475988 L282.91647,69.5828039 L280.943072,69.7326501 L279.408075,69.8617299 L277.913808,69.997885 L276.461994,70.1400954 L274.36764,70.3625333 L273.029494,70.5154193 L271.113718,70.7490893 L268.739081,71.0633975 L267.100452,71.2967272 L265.590284,71.5241735 L263.374608,71.8808263 L261.246058,72.252174 L259.739903,72.5357271 L258.739081,72.7384153 L302.701465,83.7155515 L303.236743,83.8446046 C311.916821,85.8620808 317.526554,83.4749723 321.059145,80.2887587 L321.481394,79.8948614 C321.687395,79.696161 321.885761,79.4950169 322.076722,79.2922564 L322.265223,79.0889877 L322.627614,78.6799534 L322.801606,78.4745553 L322.970863,78.2688153 L323.300717,77.8500685 L323.458511,77.6409332 L323.760098,77.2241057 L324.043373,76.8104916 L324.372366,76.3003498 L324.674245,75.8006679 L324.896785,75.4104841 L325.19999,74.8447705 L325.467747,74.3071727 L325.701494,73.8029121 L325.90267,73.3372102 L326.122723,72.785279 L326.290839,72.3235557 L326.470319,71.7698292 L326.519892,71.5948783 L325.23782,71.3578566 C314.122126,69.3621363 302.908998,68.8763942 292.939138,69.1068161 Z" id="Combined-Shape" fill="url(#linearGradient-1)"></path>
            <path d="M207.542767,9.99999997e-07 L212.777423,0.0227669199 L216.370492,0.0521319043 L216.319272,0.00814367628 L379.822494,0.00814367628 L371.71572,5.23504013 L364.415462,9.90700369 L358.478734,13.67269 L352.718189,17.2852362 L349.47231,19.2951972 L346.950079,20.8391583 L343.960369,22.6409447 L342.308426,23.6180089 L340.823119,24.4804176 L339.504448,25.2281707 L338.352412,25.8612683 L387.916962,25.8612683 L343.505099,57.5465635 C343.555589,57.7600982 343.597096,57.9800494 343.637589,58.2008374 L379.822494,58.2029425 L370.009857,66.4567106 L359.105645,75.5768267 L349.94128,83.166436 L344.84583,87.3256068 L344.936477,109.790063 L344.943701,113.551679 L344.941144,117.905046 L344.930046,120.876948 L344.909846,123.766061 L344.879316,126.585431 L344.859792,127.97304 L344.811463,130.712261 C344.999395,133.733895 345.093269,136.801926 345.092524,139.915117 L345.110515,210.040281 L345.092524,212.193913 C343.955638,282.416665 287.320019,339.128415 217.197497,340.255628 L215.068488,340.272728 L74.9629486,340.272728 L72.8119905,340.255281 C46.2735164,339.824465 21.6671142,331.435802 1.26936004,317.368699 L9.99999997e-07,316.482131 L170.01467,316.480262 L171.689935,316.466673 C226.866526,315.570957 271.319793,270.50785 271.319793,215.049221 L271.316485,208.292243 L271.312125,206.082388 L271.294496,201.629937 C270.891746,129.31728 264.077028,41.6290061 148.768779,39.7664973 L145.026442,39.7363115 L144.169933,39.7400749 C115.575439,39.9857832 89.8434114,52.2467391 71.7624668,71.7295065 L71.754589,71.6716482 L71.7008394,71.7295065 C71.3779502,69.4598797 71.210907,67.1399781 71.210907,64.7810129 C71.210907,44.432796 83.6399749,26.9911517 101.311434,19.6516899 L101.063744,19.5896213 C125.014005,6.69450189 155.380107,0.168313407 192.16205,0.0110558532 L202.217897,9.99999997e-07 L207.542767,9.99999997e-07 Z M191.8561,10.3795443 L190.711326,10.4092645 L188.953577,10.4674921 L187.22536,10.5394251 L186.372864,10.5802123 L185.528398,10.6240434 L183.864413,10.7203271 L181.833432,10.8555322 L179.860034,11.0053784 L178.325037,11.1344582 L176.83077,11.2706133 L175.378956,11.4128236 L173.284602,11.6352616 L171.946456,11.7881475 L170.03068,12.0218176 L167.656043,12.3361258 L166.017414,12.5694555 L164.507246,12.7969018 L162.29157,13.1535546 L160.16302,13.5249023 L158.656865,13.8084554 L157.656043,14.0111436 L201.618427,24.9882798 L202.153705,25.1173328 C210.833783,27.1348091 216.443516,24.7477006 219.976107,21.561487 L220.398356,21.1675897 C220.604357,20.9688893 220.802724,20.7677451 220.993684,20.5649846 L221.182185,20.361716 L221.544576,19.9526816 L221.718568,19.7472836 L221.887826,19.5415436 L222.217679,19.1227967 L222.375473,18.9136614 L222.67706,18.496834 L222.960335,18.0832199 L223.289328,17.5730781 L223.591207,17.0733962 L223.813747,16.6832123 L224.116952,16.1174987 L224.384709,15.579901 L224.618456,15.0756404 L224.819632,14.6099385 L225.039685,14.0580073 L225.207801,13.596284 L225.387281,13.0425575 L225.436854,12.8676065 L224.154782,12.6305849 C213.039088,10.6348646 201.82596,10.1491224 191.8561,10.3795443 Z" id="Combined-Shape" fill="url(#linearGradient-1)" transform="translate(193.958481, 170.136365) rotate(-180.000000) translate(-193.958481, -170.136365) "></path>
            <path d="M246.871235,148.545455 L248.401736,148.587699 L249.853954,148.670552 L250.589037,148.728498 L251.499159,148.815264 L252.454125,148.924303 L253.266291,149.031669 L254.129415,149.160631 L255.11246,149.326356 L256.587449,149.613179 L257.947964,149.919012 L259.342875,150.274565 L260.175546,150.507473 L261.375113,150.870727 L262.576844,151.268044 L263.856555,151.729132 L264.625628,152.025295 L265.23903,152.272283 L266.844442,152.963873 L267.942722,153.476218 L268.539929,153.768821 L269.384208,154.199072 L270.235024,154.653506 L270.770753,154.950618 L271.93425,155.625976 L272.980025,156.269816 L274.261129,157.10722 L275.449577,157.936112 L276.510027,158.719184 L277.963656,159.865561 L278.716768,160.495467 L279.381357,161.071016 L280.315239,161.916272 L280.81878,162.390942 L282.040271,163.595827 L282.173934,163.732703 C282.789778,164.366388 283.388996,165.0163 283.970883,165.681735 L284.44914,166.238181 C285.306169,167.246436 286.123977,168.289996 286.900127,169.365811 L287.848293,170.728922 L288.200213,171.257861 L288.777706,172.163682 L289.136534,172.745761 L289.72406,173.742623 L289.892235,174.037678 C293.995357,181.303516 296.337456,189.695506 296.337456,198.634342 C296.337456,209.026605 293.171801,218.679735 287.751895,226.68263 L286.822077,228.008984 L286.191183,228.859753 C285.692712,229.517312 285.1794,230.160966 284.650848,230.791419 L284.145451,231.384865 L283.515315,232.099518 C282.834099,232.85748 282.130669,233.59402 281.40575,234.308454 L280.065602,235.581627 L279.409266,236.172167 L278.877981,236.635257 L278.041962,237.33813 L277.173474,238.036406 L276.419198,238.617769 L275.370234,239.38942 L274.655263,239.891894 L273.65365,240.565262 L272.411766,241.352885 L271.669517,241.799719 L270.467891,242.486796 L269.104537,243.214217 L267.777232,243.871558 L266.479063,244.467985 L265.659821,244.821515 L264.308962,245.367037 L263.410588,245.704702 L262.369584,246.071524 L261.572625,246.334967 L260.032142,246.802431 L258.729775,247.155688 L257.459877,247.463998 L256.357688,247.703221 L255.211098,247.924569 L253.584055,248.19132 L252.259458,248.368108 L251.638122,248.438701 L249.753582,248.605205 L248.355823,248.682923 L247.184254,248.718331 L246.227915,248.727273 L245.571878,248.723068 L243.873504,248.672957 L242.173484,248.565675 L241.215068,248.47975 L239.686348,248.30429 L238.129403,248.076444 L236.485205,247.781059 L235.448104,247.565296 L234.348254,247.311158 L233.5431,247.108344 L231.720731,246.595869 L230.661809,246.263276 L229.912649,246.012153 C229.472775,245.860818 229.034585,245.703126 228.599276,245.539551 L227.19753,244.988475 L225.957292,244.459367 L224.613181,243.840302 L223.930311,243.507009 L222.744686,242.897239 L222.117335,242.558174 L220.561744,241.66637 L220.343967,241.535534 C219.925083,241.282433 219.509983,241.023231 219.099011,240.758183 L218.289953,240.225269 L217.499706,239.682717 L216.465211,238.938112 L215.564796,238.256769 L214.431636,237.352733 L213.580382,236.637436 L213.052111,236.17707 L212.399844,235.590429 L211.512912,234.758784 L210.584418,233.84351 L209.659847,232.883153 L209.232883,232.422034 L208.11087,231.152814 L207.541047,230.473965 L206.871068,229.643606 C206.5339,229.216553 206.203215,228.783442 205.879515,228.344865 C205.422415,227.7255 204.980231,227.096708 204.552371,226.457524 L204.173492,225.88303 L203.441527,224.721921 L202.959796,223.917203 L202.563595,223.231005 C198.460473,215.965168 196.118375,207.573177 196.118375,198.634342 C196.118375,188.242079 199.28403,178.588949 204.703936,170.586054 L205.635597,169.257158 L206.264648,168.408931 C206.786953,167.71993 207.325652,167.046073 207.881054,166.386743 L208.348857,165.839389 L208.976895,165.128729 C209.650674,164.380652 210.346266,163.65336 211.062886,162.947612 L212.390229,161.687057 L213.076402,161.070161 L213.620335,160.596957 L214.714254,159.685449 L215.282356,159.232278 L216.37001,158.401119 L217.548557,157.551783 L218.222303,157.088997 L220.244296,155.793533 L220.786313,155.468965 L221.987939,154.781888 L223.351293,154.054467 L224.505216,153.480221 L225.588509,152.97437 L226.139968,152.728881 L226.87796,152.412755 L228.146868,151.901647 L229.469491,151.41135 L230.086247,151.19716 L230.883205,150.933716 L232.439937,150.461611 L233.726055,150.112996 L234.765831,149.857942 L236.098142,149.565463 L237.244732,149.344115 L238.871775,149.077363 L240.196373,148.900576 L240.817708,148.829983 L242.702249,148.663479 L244.100007,148.585761 L245.271576,148.550352 L246.871235,148.545455 Z" id="Path" fill="#FFFFFF"></path>
        </g>
    </g>
</svg>